<?xml version="1.0" standalone="no"?>
<!DOCTYPE svg PUBLIC "-//W3C//DTD SVG 1.1//EN" "http://www.w3.org/Graphics/SVG/1.1/DTD/svg11.dtd" >
<svg xmlns="http://www.w3.org/2000/svg" xmlns:xlink="http://www.w3.org/1999/xlink" version="1.1">
<metadata>
Created by FontForge 20230101 at Thu Sep 22 00:36:08 2005
 By Webmaster
 1993 AG Fonts, Tilde Ltd. Created by Andrejs Grinbergs.
</metadata>
<defs>
<font id="AGFriquerC" horiz-adv-x="560" >
  <font-face 
    font-family="AGFriquerC"
    font-weight="400"
    font-stretch="normal"
    units-per-em="1000"
    panose-1="0 0 5 0 0 0 0 0 0 0"
    ascent="765"
    descent="-235"
    x-height="460"
    cap-height="658"
    bbox="-86 -235 1138 846"
    underline-thickness="20"
    underline-position="-133"
    stemh="66"
    stemv="129"
    unicode-range="U+0020-2122"
  />
<missing-glyph horiz-adv-x="500" 
 />
    <glyph glyph-name=".notdef" horiz-adv-x="500" 
 />
    <glyph glyph-name="space" unicode=" " horiz-adv-x="280" 
 />
    <glyph glyph-name="space" unicode="&#xa0;" horiz-adv-x="280" 
 />
    <glyph glyph-name="space" unicode="&#xa0;" horiz-adv-x="280" 
 />
    <glyph glyph-name="exclam" unicode="!" horiz-adv-x="280" 
d="M140 -13c-38 0 -64 29 -64 65c0 35 31 59 64 59c34 0 60 -29 60 -62s-26 -62 -60 -62zM101 170l-16 376c-1 24 -1 77 -10 99c-7 14 -16 21 -29 26v3h121c9 0 29 4 29 -10l-1 -19l-22 -475h-72z" />
    <glyph glyph-name="quotedbl" unicode="&#x22;" horiz-adv-x="260" 
d="M50 658h46v-201h-46v201zM164 658h46v-201h-46v201z" />
    <glyph glyph-name="numbersign" unicode="#" 
d="M343 0h-63l34 231h-95l-33 -231h-62l33 231h-121v60h130l13 92h-119v60h126l33 215h61l-31 -215h94l32 215h62l-30 -215h109v-60h-119l-13 -92h110v-60h-119zM241 383l-13 -92h94l14 92h-95z" />
    <glyph glyph-name="dollar" unicode="$" 
d="M310 -86h-54v86l-178 15v117h3c49 -43 107 -66 175 -66v251c-83 35 -186 75 -186 182c0 97 99 153 186 159v77h54v-77c42 -4 85 -11 126 -25v-105h-3c-30 34 -76 64 -123 64v-192c90 -47 196 -91 196 -210c0 -112 -95 -174 -196 -190v-86zM310 66c49 4 105 54 105 116
c0 57 -60 88 -105 109v-225zM256 592c-46 0 -95 -34 -95 -85c0 -46 59 -69 95 -86v171z" />
    <glyph glyph-name="percent" unicode="%" horiz-adv-x="780" 
d="M14 471c0 96 53 203 161 203c109 0 157 -107 157 -202c0 -110 -60 -216 -158 -212c-115 0 -160 112 -160 211zM78 473c0 -61 19 -165 97 -165c76 0 93 99 93 158c0 57 -23 160 -97 160c-75 0 -93 -95 -93 -153zM258 0h-59l324 658h58zM448 195c0 96 53 203 161 203
c109 0 157 -107 157 -202c0 -118 -64 -210 -158 -212c-115 0 -160 112 -160 211zM512 197c0 -60 19 -165 97 -165c77 0 93 100 93 158s-23 160 -97 160c-75 0 -93 -95 -93 -153z" />
    <glyph glyph-name="ampersand" unicode="&#x26;" horiz-adv-x="780" 
d="M698 0c-35 0 -67 2 -94 16c-36 19 -88 58 -119 88c-51 -82 -112 -117 -208 -117c-113 0 -226 67 -226 191c0 99 65 158 138 216c-37 38 -80 85 -80 141c0 83 78 139 156 139c80 0 144 -55 144 -138c0 -66 -41 -107 -87 -148c149 -143 296 -298 485 -385v-3h-109zM330 547
c0 38 -32 61 -69 61c-36 0 -66 -19 -66 -57c0 -40 43 -80 70 -104c32 23 65 59 65 100zM248 332c-49 -35 -90 -86 -90 -148c0 -82 63 -131 140 -131c61 0 112 40 147 86z" />
    <glyph glyph-name="quotesingle" unicode="'" horiz-adv-x="180" 
d="M66 658h46v-201h-46v201z" />
    <glyph glyph-name="parenleft" unicode="(" horiz-adv-x="300" 
d="M259 658c-79 -118 -126 -258 -126 -400c0 -135 46 -285 126 -395h-67c-78 113 -136 260 -136 398c0 144 56 279 136 397h67z" />
    <glyph glyph-name="parenright" unicode=")" horiz-adv-x="300" 
d="M34 -137c79 110 125 260 125 395c0 142 -47 282 -125 400h66c81 -118 136 -253 136 -397c0 -138 -58 -285 -136 -398h-66z" />
    <glyph glyph-name="asterisk" unicode="*" horiz-adv-x="420" 
d="M169 505l7 10l-9 3c-22 7 -47 12 -71 12c-10 0 -20 -1 -30 -3l27 77c22 -24 52 -36 82 -46l12 -4v9c0 33 -4 67 -23 95h83c-17 -26 -19 -60 -19 -91v-13l8 3c31 10 67 22 85 50l27 -75l-18 1c-27 0 -51 -7 -76 -15l-12 -3l20 -24c18 -21 33 -39 59 -48l-66 -48
c-4 32 -21 60 -40 86l-7 10l-5 -7c-19 -27 -36 -57 -41 -89l-66 48c27 9 38 21 57 42z" />
    <glyph glyph-name="plus" unicode="+" horiz-adv-x="600" 
d="M271 262v206h56v-206h205v-56h-205v-206h-56v206h-205v56h205z" />
    <glyph glyph-name="comma" unicode="," horiz-adv-x="280" 
d="M70 -104c17 14 73 73 73 93c0 7 -8 9 -13 10c-26 7 -47 24 -47 53c0 34 26 59 60 59c39 0 62 -31 62 -68c0 -48 -28 -93 -59 -126c-11 -11 -22 -24 -38 -24z" />
    <glyph glyph-name="hyphen" unicode="-" horiz-adv-x="360" 
d="M106 211c-35 0 -54 0 -87 -12l-2 2l53 60c7 7 13 16 23 21c11 5 47 4 60 4h101c35 0 54 0 87 12l2 -2l-53 -60c-7 -7 -13 -16 -23 -21c-11 -5 -47 -4 -60 -4h-101z" />
    <glyph glyph-name="hyphen" unicode="&#xad;" horiz-adv-x="360" 
d="M106 211c-35 0 -54 0 -87 -12l-2 2l53 60c7 7 13 16 23 21c11 5 47 4 60 4h101c35 0 54 0 87 12l2 -2l-53 -60c-7 -7 -13 -16 -23 -21c-11 -5 -47 -4 -60 -4h-101z" />
    <glyph glyph-name="hyphen" unicode="&#xad;" horiz-adv-x="360" 
d="M106 211c-35 0 -54 0 -87 -12l-2 2l53 60c7 7 13 16 23 21c11 5 47 4 60 4h101c35 0 54 0 87 12l2 -2l-53 -60c-7 -7 -13 -16 -23 -21c-11 -5 -47 -4 -60 -4h-101z" />
    <glyph glyph-name="period" unicode="." horiz-adv-x="280" 
d="M141 -13c-37 0 -63 29 -63 66c0 34 31 58 64 58s60 -29 60 -61c0 -34 -27 -63 -61 -63z" />
    <glyph glyph-name="slash" unicode="/" horiz-adv-x="400" 
d="M317 658h72l-313 -795h-74z" />
    <glyph glyph-name="zero" unicode="0" 
d="M14 327c0 185 91 347 267 347c185 0 264 -179 264 -341c0 -163 -80 -349 -268 -349c-157 2 -263 158 -263 343zM121 337c0 -101 33 -275 162 -275c99 0 155 122 155 263c0 143 -60 269 -161 271c-126 0 -156 -162 -156 -259z" />
    <glyph glyph-name="one" unicode="1" 
d="M125 530c89 31 168 95 214 175h3v-564c0 -57 -4 -103 50 -138v-3h-210v3c62 30 59 77 59 138v386h-116v3z" />
    <glyph glyph-name="two" unicode="2" 
d="M28 0l252 365c27 39 68 86 68 136c0 60 -57 95 -112 95c-64 0 -123 -31 -173 -64h-3l60 122c42 12 87 20 131 20c111 0 211 -59 211 -149c0 -46 -19 -82 -42 -120l-219 -323l132 -10c72 0 145 13 206 46h3l-55 -118h-459z" />
    <glyph glyph-name="three" unicode="3" 
d="M157 398l46 -3c91 -6 150 43 150 101c0 66 -69 100 -126 100s-107 -22 -152 -51h-3l41 107c42 16 88 22 133 22c93 0 213 -45 213 -156c0 -76 -54 -122 -122 -141c92 -17 172 -72 172 -175c0 -169 -184 -218 -321 -218l-104 8l-49 120h3c54 -29 118 -50 182 -50
c85 0 175 47 175 144c0 74 -51 119 -159 119c-26 0 -53 -2 -79 -10v83z" />
    <glyph glyph-name="four" unicode="4" 
d="M-11 136l311 522h138v-444c46 0 92 13 127 42l-48 -120h-79v-20c0 -44 1 -91 44 -113v-3h-194v3c55 20 49 56 49 107v26h-348zM337 585l-211 -364c52 -3 124 -7 211 -7v371z" />
    <glyph glyph-name="five" unicode="5" 
d="M458 537h-3c-37 40 -106 43 -159 43l-109 -6l-9 -165c32 9 64 13 97 13c131 0 242 -74 242 -214c0 -134 -128 -224 -297 -224c-43 0 -86 6 -129 16l-47 102c54 -28 114 -40 175 -40c92 0 184 42 184 147c0 96 -92 135 -174 135c-49 0 -108 -13 -153 -33l22 347h360v-121z
" />
    <glyph glyph-name="six" unicode="6" 
d="M426 614c-68 -10 -147 -61 -197 -107c-68 -64 -108 -148 -108 -242c0 -104 59 -215 176 -215c88 0 140 67 140 153c0 101 -53 168 -155 168c-39 0 -76 -15 -110 -34l63 79c28 15 58 21 89 21c125 0 214 -88 214 -213c0 -141 -113 -240 -251 -240
c-158 0 -267 126 -267 280c0 238 239 393 454 413z" />
    <glyph glyph-name="seven" unicode="7" 
d="M529 658l-195 -456c-58 -135 -78 -179 -31 -199v-3h-167l252 574c-46 10 -93 18 -140 18c-70 0 -137 -12 -192 -54h-3l45 120h431z" />
    <glyph glyph-name="eight" unicode="8" 
d="M38 504c0 102 100 170 238 170c102 0 234 -45 234 -166c0 -72 -64 -119 -122 -148c84 -40 160 -78 160 -184c0 -114 -116 -192 -269 -192c-143 0 -265 70 -265 186c0 93 72 144 150 176c-69 28 -126 78 -126 158zM115 184c0 -82 67 -134 171 -134c71 0 161 32 161 114
c0 100 -147 128 -222 151c-52 -21 -110 -71 -110 -131zM409 499c0 63 -51 109 -147 109c-54 0 -123 -23 -123 -87c0 -85 123 -115 188 -136c41 22 82 64 82 114z" />
    <glyph glyph-name="nine" unicode="9" 
d="M134 42c160 33 306 179 306 347c0 102 -57 214 -172 214c-86 0 -146 -67 -146 -151c0 -91 60 -163 152 -163c37 0 74 13 106 32l-68 -83c-26 -10 -53 -15 -81 -15c-117 0 -210 87 -210 208c0 146 119 243 260 243c157 0 260 -123 260 -274c0 -115 -61 -226 -150 -297
c-91 -72 -193 -108 -307 -123z" />
    <glyph glyph-name="colon" unicode=":" horiz-adv-x="280" 
d="M144 254c-38 0 -64 29 -64 65c0 35 31 59 64 59s60 -29 60 -62s-26 -62 -60 -62zM140 -13c-38 0 -64 29 -64 66c0 34 31 58 64 58s60 -29 60 -61c0 -34 -26 -63 -60 -63z" />
    <glyph glyph-name="semicolon" unicode=";" horiz-adv-x="280" 
d="M142 254c-38 0 -64 29 -64 65c0 35 31 59 64 59s60 -29 60 -62s-26 -62 -60 -62zM70 -104c17 14 73 73 73 93c0 7 -8 9 -13 10c-26 7 -47 24 -47 53c0 34 26 59 60 59c39 0 62 -31 62 -68c0 -48 -28 -93 -59 -126c-11 -11 -22 -24 -38 -24z" />
    <glyph glyph-name="less" unicode="&#x3c;" horiz-adv-x="600" 
d="M548 -20l-498 227v52l498 229v-58l-433 -198l433 -195v-57z" />
    <glyph glyph-name="equal" unicode="=" horiz-adv-x="600" 
d="M532 331v-56h-466v56h466zM532 193v-56h-466v56h466z" />
    <glyph glyph-name="greater" unicode="&#x3e;" horiz-adv-x="600" 
d="M483 232l-433 198v58l498 -229v-52l-498 -227v57z" />
    <glyph glyph-name="question" unicode="?" horiz-adv-x="480" 
d="M191 -13c-37 0 -64 28 -64 65c0 34 31 59 64 59c34 0 60 -30 60 -62c0 -34 -26 -62 -60 -62zM144 149c-3 13 -5 26 -5 38c0 68 35 102 83 143c44 37 90 82 90 143c0 81 -68 129 -144 129c-49 0 -91 -19 -133 -42l56 93c32 14 66 21 100 21c106 0 222 -57 222 -178
c0 -81 -48 -129 -105 -180c-24 -22 -51 -44 -72 -69c-15 -16 -19 -32 -19 -53c0 -12 2 -24 5 -36z" />
    <glyph glyph-name="at" unicode="@" horiz-adv-x="700" 
d="M455 240c-5 -13 -15 -39 -15 -53c0 -11 10 -18 21 -18c46 0 89 36 116 70c33 41 50 92 50 145c0 139 -123 240 -256 240c-166 0 -298 -139 -298 -303c0 -153 133 -287 284 -287c111 0 204 55 265 146h55c-61 -125 -182 -196 -315 -196c-188 0 -343 153 -343 341
c0 195 162 349 354 349c189 0 308 -144 308 -282c0 -156 -127 -268 -238 -268c-33 0 -71 17 -70 56c-33 -27 -69 -54 -114 -54c-73 0 -111 54 -111 124c0 119 89 283 223 283c39 0 64 -11 89 -39l10 20h91zM384 299c14 29 49 116 49 147c0 22 -15 39 -38 39
c-46 0 -93 -73 -113 -108c-23 -44 -51 -110 -51 -160c0 -23 10 -43 36 -43c59 0 96 78 117 125z" />
    <glyph glyph-name="A" unicode="A" horiz-adv-x="720" 
d="M221 247l-52 -141c-21 -56 -28 -85 20 -103v-3h-184v3c58 29 75 85 97 142l167 417c14 36 33 78 -15 93v3h158l208 -513c23 -57 41 -113 98 -142v-3h-205v3c49 22 41 33 14 103l-54 141h-252zM346 573l-99 -252h197z" />
    <glyph glyph-name="B" unicode="B" horiz-adv-x="580" 
d="M83 518c0 45 7 118 -44 137v3h237c132 0 209 -56 209 -145c0 -67 -43 -105 -100 -130c90 -19 163 -79 163 -177c0 -77 -53 -143 -120 -175c-70 -34 -149 -31 -224 -31h-165v3c50 19 44 92 44 138v377zM272 72c82 -8 165 30 165 125c0 97 -94 139 -182 134l-70 -4v-247z
M218 393c65 0 158 22 158 104c0 69 -64 105 -124 99l-67 -7v-196h33z" />
    <glyph glyph-name="C" unicode="C" horiz-adv-x="600" 
d="M553 534c-55 35 -119 57 -185 57c-138 0 -234 -101 -234 -246c0 -147 100 -278 254 -278c75 0 150 27 213 63h3l-51 -116c-47 -22 -99 -30 -151 -30c-236 0 -382 132 -382 346c0 207 146 344 351 344c61 0 123 -11 182 -25v-115z" />
    <glyph glyph-name="D" unicode="D" horiz-adv-x="680" 
d="M80 521c0 46 7 119 -44 134v3h245c228 0 370 -124 370 -323c0 -197 -151 -335 -375 -335h-240v3c50 34 44 82 44 141v377zM182 79c24 -5 48 -7 73 -7c149 0 282 78 282 251c0 175 -98 263 -265 263c-30 0 -60 -4 -90 -11v-496z" />
    <glyph glyph-name="E" unicode="E" horiz-adv-x="520" 
d="M189 84l127 -12c66 -6 135 15 185 59h3l-45 -131h-417v3c51 18 45 92 45 137v377c0 46 6 119 -45 138v3h320c17 0 34 -2 47 5h3v-117h-3c-31 36 -72 40 -118 40c-35 0 -70 -1 -102 -7v-186h119c16 0 32 0 44 6h3v-106h-3c-16 29 -58 28 -89 28h-74v-237z" />
    <glyph glyph-name="F" unicode="F" horiz-adv-x="420" 
d="M182 140c0 -45 -8 -118 42 -137v-3h-189v3c51 18 45 92 45 137v377c0 46 6 119 -45 138v3h320c17 0 34 -2 47 5h3v-116h-3c-31 35 -72 39 -118 39c-35 0 -70 -1 -102 -7v-186h120c15 0 31 0 43 6h3v-106h-3c-16 30 -58 28 -89 28h-74v-181z" />
    <glyph glyph-name="G" unicode="G" horiz-adv-x="680" 
d="M591 542h-3c-41 46 -117 60 -178 60c-156 0 -275 -102 -275 -263s128 -283 286 -283c46 0 94 6 139 19v144c0 46 -1 95 -46 113v3h153v-3c-5 -12 -5 -28 -5 -43v-230c0 -15 -1 -31 5 -45c-80 -15 -158 -30 -239 -30c-256 0 -407 140 -407 341c0 215 171 349 413 349
c53 0 105 -6 157 -17v-115z" />
    <glyph glyph-name="H" unicode="H" horiz-adv-x="720" 
d="M179 321v-181c0 -45 -6 -118 44 -137v-3h-190v3c50 19 44 92 44 137v378c0 45 7 118 -44 137v3h190v-3c-50 -19 -44 -92 -44 -138v-124h361v124c0 46 7 119 -44 138v3h191v-3c-51 -19 -45 -92 -45 -137v-378c0 -45 -6 -118 45 -137v-3h-191v3c51 19 44 92 44 137v181
h-361z" />
    <glyph glyph-name="I" unicode="I" horiz-adv-x="260" 
d="M81 517c0 46 7 119 -44 138v3h190v-3c-50 -19 -44 -93 -44 -138v-377c0 -45 -6 -118 44 -137v-3h-190v3c50 18 44 92 44 137v377z" />
    <glyph glyph-name="J" unicode="J" horiz-adv-x="260" 
d="M87 517c0 46 6 119 -45 138v3h191v-3c-50 -19 -44 -92 -44 -138v-567c0 -106 -77 -164 -224 -180v3c111 71 122 131 122 239v505z" />
    <glyph glyph-name="K" unicode="K" horiz-adv-x="600" 
d="M83 518c0 45 6 118 -45 137v3h192v-3c-51 -18 -45 -92 -45 -137v-377c0 -46 -6 -119 45 -138v-3h-192v3c51 19 45 93 45 138v377zM329 516c33 47 93 109 26 139v3h180v-1l-230 -295l202 -265c31 -41 69 -69 120 -94v-3h-94c-49 0 -95 19 -113 43l-222 299z" />
    <glyph glyph-name="L" unicode="L" horiz-adv-x="520" 
d="M326 72c68 -4 127 19 177 61h3l-52 -133h-411v3c51 18 45 92 45 137v377c0 46 6 119 -45 138v3h191v-3c-51 -19 -44 -93 -44 -138v-436z" />
    <glyph glyph-name="M" unicode="M" horiz-adv-x="900" 
d="M627 595c8 21 15 41 15 62v1h173v-3c-24 -7 -31 -36 -31 -59l66 -491c6 -47 11 -74 51 -102v-3h-193v3c35 11 41 41 41 75l-57 482l-224 -573c-50 38 -64 65 -88 121l-190 451l-57 -430c-8 -61 -15 -105 32 -126v-3h-163v3c42 37 48 86 56 140l57 419c4 28 15 68 -31 93
v3h175v-1c0 -16 8 -31 14 -45l188 -441z" />
    <glyph glyph-name="N" unicode="N" horiz-adv-x="720" 
d="M158 130c0 -56 -1 -96 52 -127v-3h-177v3c53 31 53 71 53 127v399c0 56 0 96 -52 126v3h146v-1c4 -12 8 -17 15 -25l14 -20l366 -462v379c0 56 1 96 -52 126v3h176v-3c-52 -30 -52 -70 -52 -126v-561c-71 24 -102 57 -146 114l-343 435v-387z" />
    <glyph glyph-name="O" unicode="O" horiz-adv-x="780" 
d="M756 336c0 -204 -169 -352 -368 -352c-198 0 -365 142 -365 347c0 190 165 349 375 344c210 1 358 -159 358 -339zM137 340c0 -140 99 -284 256 -284c152 0 249 111 249 260c0 146 -93 287 -251 287c-155 0 -254 -112 -254 -263z" />
    <glyph glyph-name="P" unicode="P" horiz-adv-x="520" 
d="M288 658c130 0 229 -63 229 -175c0 -115 -107 -188 -220 -188c-25 0 -50 3 -73 14c86 5 179 58 179 154c0 88 -62 123 -142 123c-24 0 -47 -2 -70 -6v-451c0 -56 -1 -96 52 -126v-3h-199v3c51 18 45 92 45 137v377c0 45 6 118 -44 138v3h243z" />
    <glyph glyph-name="Q" unicode="Q" horiz-adv-x="780" 
d="M899 -129c-34 -32 -80 -51 -127 -51c-99 0 -242 113 -319 174c-27 -6 -54 -10 -82 -10c-195 0 -354 147 -354 345c0 205 174 345 371 345s362 -135 362 -339c0 -118 -68 -245 -178 -296c83 -75 196 -168 313 -168h14zM636 315c0 139 -86 287 -254 287
c-160 0 -251 -124 -251 -255c0 -163 105 -291 256 -291c150 0 249 112 249 259z" />
    <glyph glyph-name="R" unicode="R" horiz-adv-x="540" 
d="M277 658c134 0 207 -70 207 -161c0 -88 -77 -157 -159 -176l144 -181c42 -52 105 -104 162 -140h-92c-53 0 -86 13 -116 50l-122 151l-92 141c80 12 173 49 173 143c0 72 -62 114 -129 111c-23 -1 -45 -4 -68 -8v-448c0 -46 -6 -119 45 -137v-3h-191v3
c51 18 44 92 44 137v377c0 46 7 119 -44 138v3h238z" />
    <glyph glyph-name="S" unicode="S" horiz-adv-x="520" 
d="M428 539c-39 40 -101 63 -157 63c-57 0 -129 -22 -129 -91c0 -137 344 -135 344 -320c0 -107 -112 -207 -268 -207c-61 0 -122 9 -179 30l-29 125c59 -51 141 -83 219 -83c57 0 143 34 143 104c0 156 -344 128 -344 340c0 126 129 174 251 174c50 0 101 -7 149 -22v-113z
" />
    <glyph glyph-name="T" unicode="T" horiz-adv-x="460" 
d="M275 130c0 -57 -1 -96 52 -127v-3h-198v3c50 19 44 92 44 137v446h-88c-43 0 -88 -11 -119 -40h-3l35 119h3c12 -5 25 -5 38 -7h25h373c17 0 33 1 46 7h3l-32 -119h-3c-13 35 -53 40 -86 40h-90v-456z" />
    <glyph glyph-name="U" unicode="U" horiz-adv-x="680" 
d="M496 66c-44 -58 -126 -82 -196 -82c-66 0 -136 21 -181 70c-53 58 -51 125 -51 197v267c0 45 7 118 -44 137v3h190v-3c-50 -19 -44 -92 -44 -137v-267c0 -133 56 -195 159 -195c56 0 113 23 146 70c22 30 21 55 21 91v301c0 45 6 118 -44 137v3h190l1 -3
c-51 -19 -45 -92 -45 -138v-377c0 -45 -6 -118 45 -137v-3h-147v66z" />
    <glyph glyph-name="V" unicode="V" horiz-adv-x="600" 
d="M451 477c27 71 61 153 -1 178v3h149l-264 -688c-70 46 -93 54 -122 133l-151 409c-19 51 -34 109 -78 143v3h146l-1 -12c0 -22 19 -71 27 -93l159 -435z" />
    <glyph glyph-name="W" unicode="W" horiz-adv-x="940" 
d="M334 -30c-91 66 -100 59 -133 162l-118 369c-18 55 -33 120 -83 154v3h146c-4 -22 6 -53 12 -72l149 -465l117 380c19 61 39 126 -16 154v3h141c-6 -25 1 -57 15 -101l139 -433l113 366c18 57 51 138 -27 165v3h154l-211 -688c-92 63 -99 58 -132 161l-110 344z" />
    <glyph glyph-name="X" unicode="X" horiz-adv-x="620" 
d="M159 102c-24 -32 -54 -75 7 -99v-3h-194v3l277 348l-145 210c-26 38 -54 78 -96 97h116c31 0 40 -8 50 -24l145 -209l99 134c25 34 59 88 -9 96v3h183l-227 -296l160 -238c32 -48 63 -103 120 -124h-115c-41 0 -58 26 -65 35l-167 251z" />
    <glyph glyph-name="Y" unicode="Y" horiz-adv-x="540" 
d="M331 130c0 -60 0 -90 51 -127v-3h-195v3c49 25 42 90 42 137v148l-166 267c-27 44 -47 77 -95 103h91c32 0 62 -7 75 -28l160 -261l124 186c17 25 40 73 -16 100v3h175l-246 -370v-158z" />
    <glyph glyph-name="Z" unicode="Z" horiz-adv-x="600" 
d="M9 0l362 576l-170 10c-62 4 -98 -9 -150 -43h-3l51 115h442l-360 -574l210 -12c73 -4 136 18 198 55h3l-56 -127h-527z" />
    <glyph glyph-name="bracketleft" unicode="[" horiz-adv-x="300" 
d="M271 658v-54h-101v-686h101v-54h-220v3c40 26 34 80 34 123v548c0 42 3 92 -34 117v3h220z" />
    <glyph glyph-name="backslash" unicode="\" horiz-adv-x="540" 
d="M75 658h63l275 -658h-62z" />
    <glyph glyph-name="bracketright" unicode="]" horiz-adv-x="300" 
d="M26 -136v54h101v686h-101v54h220v-3c-37 -25 -34 -75 -34 -117v-548c0 -43 -6 -97 34 -123v-3h-220z" />
    <glyph glyph-name="asciicircum" unicode="^" horiz-adv-x="600" 
d="M64 258l209 400h51l211 -400h-59l-179 346l-174 -346h-59z" />
    <glyph glyph-name="underscore" unicode="_" horiz-adv-x="500" 
d="M500 -74v-56h-500v56h500z" />
    <glyph glyph-name="grave" unicode="`" horiz-adv-x="400" 
d="M338 487l-272 81l55 74z" />
    <glyph glyph-name="a" unicode="a" horiz-adv-x="480" 
d="M446 -13c-66 4 -132 24 -132 104v158c-29 -15 -63 -23 -96 -31c-48 -11 -102 -22 -102 -83c0 -62 56 -82 109 -82c24 0 48 7 72 14l-59 -75c-17 -3 -35 -5 -52 -5c-101 0 -171 64 -171 147c0 186 299 100 299 209c0 48 -59 64 -96 64c-51 0 -91 -19 -136 -40l67 100l65 6
c108 0 190 -31 191 -152v-150c0 -79 2 -109 85 -118z" />
    <glyph glyph-name="b" unicode="b" horiz-adv-x="540" 
d="M95 658c24 0 49 0 63 16h3v-605c27 -7 55 -12 83 -12c110 0 173 71 173 170c0 97 -49 172 -150 172c-32 0 -57 -8 -84 -22l54 85c23 8 47 11 71 11c114 0 210 -91 210 -228c0 -157 -114 -258 -296 -258c-68 0 -133 11 -182 18v3c33 14 30 47 30 80v460c0 46 6 82 -37 107
v3h62z" />
    <glyph glyph-name="c" unicode="c" horiz-adv-x="460" 
d="M415 358h-3c-29 33 -77 49 -122 49c-97 0 -167 -68 -167 -163c0 -115 97 -191 208 -191c51 0 107 20 146 49h3l-52 -95c-42 -16 -88 -20 -132 -20c-154 0 -274 101 -274 231c0 172 134 255 285 255c36 0 73 -4 108 -12v-103z" />
    <glyph glyph-name="d" unicode="d" horiz-adv-x="580" 
d="M445 658c23 0 47 0 58 16h3v-564c0 -46 -6 -83 38 -107v-3h-129v214c0 40 3 84 -16 121c-25 48 -76 72 -129 72c-80 0 -145 -73 -145 -164c0 -101 72 -190 177 -190c32 0 59 12 86 29l-59 -90c-17 -5 -34 -5 -52 -5c-146 0 -253 93 -253 242c0 135 100 244 237 244
c56 0 112 -21 154 -58v132c0 46 6 82 -38 108v3h68z" />
    <glyph glyph-name="e" unicode="e" horiz-adv-x="520" 
d="M133 246c2 -122 87 -193 200 -193c60 0 118 17 164 53h3l-50 -94c-43 -18 -91 -25 -138 -25c-170 0 -287 107 -287 246s101 240 250 240c136 0 229 -98 225 -227h-367zM395 304c-11 70 -57 103 -129 103c-67 0 -117 -40 -129 -103h258z" />
    <glyph glyph-name="f" unicode="f" horiz-adv-x="260" 
d="M156 145c0 -49 -6 -116 43 -142v-3h-172v3c44 25 38 62 38 107v284h-50l50 66v24c0 56 -2 87 37 131c46 52 112 64 178 64l68 -6l-70 -77c-17 11 -31 17 -51 17c-59 0 -71 -28 -71 -87v-66h116l17 6h3v-88h-3c-8 13 -21 16 -37 16h-96v-249z" />
    <glyph glyph-name="g" unicode="g" horiz-adv-x="580" 
d="M574 473l-23 -52c-8 -18 -10 -24 -32 -24c-35 0 -69 8 -103 13c42 -27 71 -70 71 -121c0 -113 -122 -148 -213 -156c-14 -1 -41 -10 -41 -27c0 -22 47 -19 60 -19c173 0 265 -47 265 -146c0 -113 -125 -176 -281 -176c-147 0 -277 57 -277 142c0 56 45 81 96 81
c21 0 38 -4 57 -13c-25 -5 -38 -19 -38 -45c0 -84 100 -99 165 -99c66 0 177 19 177 103c0 88 -143 93 -204 93l-69 -2c-44 -1 -73 35 -73 71c0 29 58 43 79 53c-72 14 -132 79 -132 154c0 116 112 170 215 170h301zM282 199c60 0 104 39 104 97c0 64 -54 111 -125 111
c-55 0 -102 -30 -102 -88c0 -65 58 -120 123 -120z" />
    <glyph glyph-name="h" unicode="h" horiz-adv-x="540" 
d="M93 658c23 0 47 0 61 16h3v-264c30 43 98 63 147 63c138 0 171 -83 171 -180v-182c0 -46 -6 -83 38 -108v-3h-166v3c44 25 37 62 37 108v152c0 81 -26 144 -112 144c-88 0 -115 -49 -115 -138v-158c0 -46 -6 -83 38 -108v-3h-167v3c44 25 38 62 38 108v436
c0 46 6 83 -38 108v3h65z" />
    <glyph glyph-name="i" unicode="i" horiz-adv-x="240" 
d="M94 460c23 0 48 1 65 16h3v-365c0 -46 -6 -83 38 -108v-3h-167v3c44 25 38 62 38 108v239c0 46 6 82 -38 107v3h61zM113 520c-37 0 -65 29 -65 66c0 35 32 59 65 59c34 0 60 -29 60 -62s-26 -63 -60 -63z" />
    <glyph glyph-name="j" unicode="j" horiz-adv-x="240" 
d="M115 520c-37 0 -63 29 -63 65c0 35 30 60 64 60c33 0 60 -30 60 -63s-27 -62 -61 -62zM102 460c23 0 47 1 61 13h3v-484c0 -50 7 -110 -31 -150c-37 -39 -111 -67 -159 -65v3c93 52 99 114 99 218v355c0 46 6 82 -38 107v3h65z" />
    <glyph glyph-name="k" unicode="k" horiz-adv-x="480" 
d="M95 658c22 0 46 1 59 16h3v-563c0 -46 -6 -83 39 -108v-3h-167v3c43 25 37 62 37 108v436c0 46 6 83 -37 108v3h66zM176 257l83 91c15 17 51 55 51 80c0 14 -9 23 -19 29v3h152l-167 -193l122 -155c31 -41 61 -84 106 -112h-78c-58 0 -83 29 -102 56z" />
    <glyph glyph-name="l" unicode="l" horiz-adv-x="240" 
d="M93 658c23 0 49 -1 64 16h3v-563c0 -46 -7 -83 37 -108v-3h-165v3c43 25 37 62 37 108v436c0 46 6 83 -37 108v3h61z" />
    <glyph glyph-name="m" unicode="m" horiz-adv-x="860" 
d="M88 460c22 0 46 1 62 13h3v-79c35 54 74 79 141 79c71 0 119 -28 156 -87c39 54 86 87 160 87c142 0 179 -81 179 -208v-154c0 -43 -6 -92 44 -108v-3h-173v3c44 25 38 62 38 108v129c0 102 -32 167 -112 167c-90 0 -115 -57 -115 -151v-145c0 -46 -6 -83 38 -108v-3
h-167v3c44 25 38 62 38 108v138c0 105 -52 158 -114 158c-76 0 -113 -47 -113 -143v-153c0 -46 -6 -82 37 -108v-3h-166v3c44 25 38 62 38 108v239c0 46 6 82 -38 107v3h64z" />
    <glyph glyph-name="n" unicode="n" horiz-adv-x="540" 
d="M87 460c22 0 46 1 67 13h3v-77c35 48 76 77 141 77c56 0 120 -22 152 -69c28 -40 25 -102 25 -149v-145c0 -46 -6 -82 38 -107v-3h-167v3c44 25 38 62 38 107v135c0 107 -30 162 -121 162s-106 -61 -106 -120v-177c0 -46 -6 -82 38 -107v-3h-167v3c44 25 38 62 38 108
v238c0 46 6 83 -38 108v3h59z" />
    <glyph glyph-name="o" unicode="o" 
d="M23 226c0 150 121 247 265 247c64 0 119 -17 167 -59c51 -45 82 -111 82 -179c0 -144 -120 -248 -261 -248c-137 0 -253 97 -253 239zM436 214c0 97 -52 193 -159 193c-93 0 -153 -73 -153 -163c0 -92 55 -191 157 -191c92 0 155 71 155 161z" />
    <glyph glyph-name="p" unicode="p" horiz-adv-x="580" 
d="M96 460c22 0 46 2 60 13h3v-71c34 47 108 71 164 71c139 0 229 -107 229 -238c0 -139 -101 -248 -241 -248c-26 0 -51 4 -74 13l-54 82c35 -17 71 -29 109 -29c106 0 159 71 159 171c0 93 -50 179 -153 179c-42 0 -83 -17 -111 -48c-29 -31 -28 -67 -28 -107v-343
c0 -46 -6 -82 38 -107v-3h-167v3c44 25 38 61 38 107v445c0 46 6 83 -38 107v3h66z" />
    <glyph glyph-name="q" unicode="q" horiz-adv-x="580" 
d="M413 378c-35 11 -72 16 -109 16c-101 0 -178 -61 -178 -164c0 -101 77 -177 179 -177c30 0 55 4 81 18l-6 -11l-41 -62c-22 -9 -46 -11 -69 -11c-132 0 -245 85 -245 224c0 132 87 249 280 249h237v-3c-44 -25 -38 -61 -38 -107v-443c0 -46 -6 -82 38 -109v-3h-167v3
c44 27 38 63 38 109v471z" />
    <glyph glyph-name="r" unicode="r" horiz-adv-x="320" 
d="M102 460c23 0 47 1 61 13h3v-76c22 45 68 76 118 76l36 -3v-92c-11 12 -29 16 -46 16c-76 0 -108 -40 -108 -143v-140c0 -46 -6 -83 38 -108v-3h-167v3c44 25 38 62 38 108v239c0 46 6 82 -37 107v3h64z" />
    <glyph glyph-name="s" unicode="s" horiz-adv-x="420" 
d="M345 375c-37 20 -79 32 -123 32c-33 0 -93 -8 -93 -48c0 -89 271 -57 271 -216c0 -93 -95 -156 -224 -156c-45 0 -88 7 -130 24l-35 98c58 -37 119 -56 188 -56c41 0 110 14 110 65c0 101 -271 69 -271 221c0 106 110 134 196 134c37 0 75 -3 111 -13v-85z" />
    <glyph glyph-name="t" unicode="t" horiz-adv-x="320" 
d="M176 194c0 -38 -12 -141 95 -141c14 0 27 5 40 10l-53 -71c-10 -3 -21 -5 -32 -5c-155 0 -141 160 -141 199v208h-68v36c94 16 119 86 119 179h40v-149h94c13 0 28 0 38 6h3v-91h-3c-16 21 -46 19 -72 19h-60v-200z" />
    <glyph glyph-name="u" unicode="u" horiz-adv-x="540" 
d="M399 460c26 0 57 -4 75 13h3v-364c0 -46 -6 -83 38 -106v-3h-129v65c-36 -55 -74 -78 -144 -78c-118 0 -174 67 -174 208v154c0 46 6 83 -38 108v3h65c22 0 47 1 61 13h3v-261c0 -92 26 -149 113 -149c66 0 114 54 114 131v154c0 47 6 83 -38 109v3h51z" />
    <glyph glyph-name="v" unicode="v" horiz-adv-x="520" 
d="M18 460c31 0 60 -3 82 12h3c1 -12 8 -33 16 -50l145 -323l115 247c20 42 42 89 -11 111v3h142l-227 -478c-57 33 -83 45 -109 104l-121 264c-24 54 -27 74 -89 107v3h54z" />
    <glyph glyph-name="w" unicode="w" horiz-adv-x="780" 
d="M14 460c32 0 68 -5 92 13h3c1 -15 6 -35 13 -52l117 -304l91 235c14 36 39 84 -9 105v3h131v-15c0 -10 10 -35 14 -46l103 -282l93 235c13 34 40 80 -14 105v3h134l-199 -478c-68 36 -76 53 -101 119l-86 230l-137 -349c-71 37 -81 49 -108 119l-110 281
c-14 34 -22 55 -53 75v3h26z" />
    <glyph glyph-name="x" unicode="x" horiz-adv-x="520" 
d="M150 72c-18 -21 -44 -48 -2 -69v-3h-162v3l214 238l-103 134c-24 33 -51 63 -85 82v3h76c34 0 62 -8 88 -42l86 -115l65 77c20 24 49 61 0 77v3h166l-186 -214l109 -145c29 -37 60 -77 102 -101h-108c-30 0 -47 19 -63 41l-103 141z" />
    <glyph glyph-name="y" unicode="y" horiz-adv-x="500" 
d="M368 343c15 39 38 92 -10 114v3h140l-208 -496c-54 -129 -124 -167 -218 -167c-43 0 -80 10 -119 25l90 65c17 -11 35 -24 56 -24c70 0 100 75 121 130l6 16l-4 5c-33 33 -33 38 -52 80l-122 266c-20 44 -32 79 -80 97v3h85c37 0 56 -15 67 -40l147 -331z" />
    <glyph glyph-name="z" unicode="z" horiz-adv-x="460" 
d="M-1 0v3l277 383l-103 8c-49 4 -103 -5 -141 -36h-3l50 102h354v-3l-263 -379l146 -12c62 -5 109 11 160 43h3l-56 -109h-424z" />
    <glyph glyph-name="braceleft" unicode="{" horiz-adv-x="280" 
d="M168 -8c0 -57 14 -86 71 -104c-37 -1 -68 0 -99 23c-32 23 -34 61 -34 97v167c0 28 1 47 -19 70c-14 16 -33 26 -54 30c62 15 73 42 73 101v147c0 100 26 140 133 135c-55 -15 -71 -48 -71 -102v-157c0 -64 -10 -109 -80 -124c66 -15 80 -53 80 -115v-168z" />
    <glyph glyph-name="bar" unicode="|" horiz-adv-x="600" 
d="M271 658h57v-658h-57v658z" />
    <glyph glyph-name="braceright" unicode="}" horiz-adv-x="280" 
d="M105 556c0 54 -16 87 -71 102c107 5 133 -35 133 -135v-147c0 -59 11 -86 73 -101c-21 -4 -40 -14 -54 -30c-20 -23 -19 -42 -19 -70v-167c0 -36 -2 -74 -34 -97c-31 -23 -62 -24 -99 -23c57 18 71 47 71 104v168c0 62 13 100 80 115c-70 15 -80 60 -80 124v157z" />
    <glyph glyph-name="asciitilde" unicode="~" horiz-adv-x="600" 
d="M551 273c-34 -48 -69 -94 -134 -94c-34 0 -62 11 -93 23l-47 17c-26 10 -57 24 -86 24c-49 0 -75 -36 -99 -74l-43 28c35 54 74 100 144 100c71 0 167 -64 223 -64c45 0 69 33 92 67z" />
    <glyph glyph-name="afii10051" unicode="&#x402;" horiz-adv-x="720" 
d="M473 -16c-41 0 -82 11 -116 30l-29 96h3c32 -27 69 -45 117 -45c83 0 136 57 136 163s-60 163 -147 163c-67 0 -117 -23 -162 -52v-209c0 -57 0 -102 42 -127v-3h-188v3c50 19 44 92 44 137v446h-88c-43 0 -88 -11 -119 -40h-3l35 119h3c12 -5 25 -5 38 -7h398
c17 0 33 1 46 7h3l-32 -119h-3c-13 35 -53 40 -86 40h-90v-170c54 36 112 57 196 57c128 0 228 -91 228 -245c0 -141 -82 -244 -226 -244z" />
    <glyph glyph-name="afii10052" unicode="&#x403;" horiz-adv-x="420" 
d="M182 140c0 -45 -8 -118 42 -137v-3h-189v3c51 18 45 92 45 137v377c0 46 6 119 -45 138v3h320c17 0 34 -2 47 5h3v-116h-3c-31 35 -72 39 -118 39c-35 0 -70 -1 -102 -7v-439zM337 846l55 -73l-272 -82z" />
    <glyph glyph-name="quotesinglbase" unicode="&#x201a;" horiz-adv-x="280" 
d="M84 -84c13 14 53 57 53 77c0 7 -6 9 -12 10c-27 4 -49 21 -49 51c0 32 26 57 57 57c37 0 64 -30 64 -67c0 -39 -25 -78 -48 -108c-7 -9 -22 -32 -37 -32c-6 0 -12 2 -18 4z" />
    <glyph glyph-name="afii10100" unicode="&#x453;" horiz-adv-x="360" 
d="M298 460c17 2 33 1 46 7h3v-114h-3c-14 37 -73 45 -106 45c0 0 -44 1 -81 -3v-285c0 -46 -6 -82 38 -107v-3h-167v3c44 25 38 61 38 108v239c0 45 6 82 -38 107v3h270zM263 648l55 -73l-272 -82z" />
    <glyph glyph-name="quotedblbase" unicode="&#x201e;" horiz-adv-x="440" 
d="M84 -84c13 14 53 57 53 77c0 7 -6 9 -12 10c-27 4 -49 21 -49 51c0 32 26 57 57 57c37 0 64 -30 64 -67c0 -39 -25 -78 -48 -108c-7 -9 -22 -32 -37 -32c-6 0 -12 2 -18 4zM248 -84c13 14 53 57 53 77c0 7 -6 9 -12 10c-27 4 -49 21 -49 51c0 32 26 57 57 57
c37 0 64 -30 64 -67c0 -39 -25 -78 -48 -108c-7 -9 -22 -32 -37 -32c-6 0 -12 2 -18 4z" />
    <glyph glyph-name="ellipsis" unicode="&#x2026;" horiz-adv-x="1000" 
d="M168 -13c-37 0 -63 29 -63 66c0 34 31 58 64 58s60 -29 60 -61c0 -34 -27 -63 -61 -63zM502 -13c-37 0 -64 29 -64 66c0 34 31 58 64 58c34 0 60 -29 60 -61c0 -34 -26 -63 -60 -63zM835 -13c-38 0 -64 29 -64 66c0 34 31 58 64 58s60 -29 60 -61c0 -34 -26 -63 -60 -63z
" />
    <glyph glyph-name="dagger" unicode="&#x2020;" 
d="M320 -4c0 -45 1 -95 28 -130v-3h-137v3c28 35 29 85 29 130v348h-73c-46 0 -81 1 -119 -25h-3v129h3c35 -23 77 -24 120 -24h72v118c0 40 -1 83 -29 113v3h137v-3c-27 -34 -28 -70 -28 -113v-118h73c45 0 79 6 117 24h3v-129h-3c-36 23 -72 25 -116 25h-74v-348z" />
    <glyph glyph-name="daggerdbl" unicode="&#x2021;" 
d="M320 178h72c46 0 81 2 118 25h3v-127h-3c-29 21 -82 22 -120 22h-70v-102c0 -45 1 -96 28 -130v-3h-137v3c28 35 29 84 29 130v102h-72c-46 0 -81 1 -120 -22h-3v127h3c35 -25 83 -25 126 -25h66v201h-73c-46 0 -81 1 -119 -25h-3v129h3c35 -23 77 -24 120 -24h72v83
c0 39 -1 83 -29 113v3h137v-3c-27 -34 -28 -70 -28 -113v-83h73c45 0 79 6 117 24h3v-129h-3c-36 23 -72 25 -116 25h-74v-201z" />
    <glyph glyph-name="perthousand" unicode="&#x2030;" horiz-adv-x="1160" 
d="M333 462c0 -95 -48 -202 -157 -202c-108 0 -161 107 -161 203c0 99 45 211 160 211c94 -2 158 -94 158 -212zM79 473c0 -61 19 -165 97 -165c76 0 93 99 93 158c0 57 -23 160 -97 160c-75 0 -93 -95 -93 -153zM258 0h-59l324 658h58zM448 195c0 96 53 203 161 203
c109 0 157 -107 157 -202c0 -118 -64 -210 -158 -212c-115 0 -160 112 -160 211zM702 188c0 58 -23 162 -97 162c-75 0 -93 -97 -93 -155c0 -60 19 -163 97 -163c77 0 93 98 93 156zM820 195c0 96 53 203 161 203c109 0 157 -107 157 -202c0 -118 -64 -210 -158 -212
c-115 0 -160 112 -160 211zM1074 188c0 58 -23 162 -97 162c-75 0 -93 -97 -93 -155c0 -60 19 -163 97 -163c76 0 93 98 93 156z" />
    <glyph glyph-name="afii10058" unicode="&#x409;" horiz-adv-x="820" 
d="M487 78c23 -4 46 -6 70 -6c80 0 142 35 142 123c0 96 -93 149 -179 154c23 11 48 14 73 14c113 0 220 -63 220 -188c0 -112 -99 -175 -229 -175h-243v3c35 14 43 55 44 94l-2 485c-10 2 -21 4 -33 4c-11 0 -24 -2 -35 -4l-154 -430c-43 -117 -94 -167 -167 -167l-39 83
c58 0 97 20 122 84l158 411c14 36 33 77 -15 92v3h319v-3c-53 -30 -52 -70 -52 -126v-451z" />
    <glyph glyph-name="guilsinglleft" unicode="&#x2039;" horiz-adv-x="260" 
d="M182 408h31l-59 -161l59 -158h-31l-104 158z" />
    <glyph glyph-name="afii10059" unicode="&#x40a;" horiz-adv-x="980" 
d="M540 321h-361v-181c0 -45 -6 -118 44 -137v-3h-190v3c50 19 44 92 44 137v378c0 45 7 118 -44 137v3h190v-3c-50 -19 -44 -92 -44 -138v-124h361v125c0 45 6 119 -45 137v3h199v-3c-53 -30 -52 -70 -52 -126v-451c23 -4 46 -6 70 -6c80 0 142 35 142 123
c0 96 -93 149 -179 154c23 11 48 14 73 14c113 0 220 -63 220 -188c0 -112 -99 -175 -229 -175h-243v3c50 20 44 93 44 138v180z" />
    <glyph glyph-name="afii10061" unicode="&#x40c;" horiz-adv-x="580" 
d="M83 518c0 45 6 118 -45 137v3h192v-3c-51 -18 -45 -92 -45 -137v-377c0 -46 -6 -119 45 -138v-3h-192v3c51 19 45 93 45 138v377zM329 516c33 47 93 109 26 139v3h180v-1l-230 -295l202 -265c31 -41 69 -69 120 -94v-3h-94c-49 0 -95 19 -113 43l-222 299zM393 846
l55 -73l-272 -82z" />
    <glyph glyph-name="afii10060" unicode="&#x40b;" horiz-adv-x="720" 
d="M275 339v-209c0 -57 -1 -96 52 -127v-3h-198v3c50 19 44 92 44 137v446h-88c-43 0 -88 -11 -119 -40h-3l35 119h3c12 -5 25 -5 38 -7h398c17 0 33 1 46 7h3l-32 -119h-3c-13 35 -53 40 -86 40h-90v-170c53 30 119 57 196 57c87 0 197 -41 197 -172v-161
c0 -45 -7 -118 44 -137v-3h-190v3c50 19 44 92 44 138v145c0 78 -63 105 -131 105c-63 0 -115 -25 -160 -52z" />
    <glyph glyph-name="afii10145" unicode="&#x40f;" horiz-adv-x="720" 
d="M249 0h-216v3c50 19 44 92 44 137v378c0 45 7 118 -44 137v3h190v-3c-50 -19 -44 -92 -44 -138v-439s44 -6 99 -6h162c55 0 100 6 100 6v439c0 46 7 119 -44 138v3h191v-3c-51 -19 -45 -92 -45 -137v-378c0 -35 10 -111 44 -137v-3h-216c-74 0 -97 -25 -109 -60h-3
c-13 35 -35 60 -109 60z" />
    <glyph glyph-name="afii10099" unicode="&#x452;" horiz-adv-x="540" 
d="M384 -5v268c0 81 -26 144 -112 144c-88 0 -115 -49 -115 -138v-158c0 -46 -6 -83 38 -108v-3h-167v3c44 25 38 62 38 108v421h-68v36c37 6 57 12 68 17c-1 29 -7 52 -38 70v3h65c23 0 47 0 61 16h3v-76h187c13 0 28 0 38 6h3v-91h-3c-16 21 -46 19 -72 19h-153v-122
c30 43 98 63 147 63c138 0 171 -83 171 -180v-304c0 -50 7 -110 -31 -150c-37 -39 -111 -67 -159 -65v3c93 52 99 114 99 218z" />
    <glyph glyph-name="quoteleft" unicode="&#x2018;" horiz-adv-x="280" 
d="M195 674c-13 -14 -53 -57 -53 -77c0 -7 6 -9 12 -10c27 -4 49 -21 49 -51c0 -32 -26 -57 -57 -57c-37 0 -64 30 -64 67c0 39 25 78 48 108c7 9 22 32 37 32c6 0 12 -2 18 -4z" />
    <glyph glyph-name="quoteright" unicode="&#x2019;" horiz-adv-x="280" 
d="M84 491c13 14 53 57 53 77c0 7 -6 9 -12 10c-27 4 -49 21 -49 51c0 32 26 57 57 57c37 0 64 -30 64 -67c0 -39 -25 -78 -48 -108c-7 -9 -22 -32 -37 -32c-6 0 -12 2 -18 4z" />
    <glyph glyph-name="quotedblleft" unicode="&#x201c;" horiz-adv-x="440" 
d="M196 674c-13 -14 -53 -57 -53 -77c0 -7 6 -9 12 -10c27 -4 49 -21 49 -51c0 -32 -26 -57 -57 -57c-37 0 -64 30 -64 67c0 39 25 78 48 108c7 9 22 32 37 32c6 0 12 -2 18 -4zM360 674c-13 -14 -53 -57 -53 -77c0 -7 6 -9 12 -10c27 -4 49 -21 49 -51
c0 -32 -26 -57 -57 -57c-37 0 -64 30 -64 67c0 39 25 78 48 108c7 9 22 32 37 32c6 0 12 -2 18 -4z" />
    <glyph glyph-name="quotedblright" unicode="&#x201d;" horiz-adv-x="440" 
d="M84 491c13 14 53 57 53 77c0 7 -6 9 -12 10c-27 4 -49 21 -49 51c0 32 26 57 57 57c37 0 64 -30 64 -67c0 -39 -25 -78 -48 -108c-7 -9 -22 -32 -37 -32c-6 0 -12 2 -18 4zM248 491c13 14 53 57 53 77c0 7 -6 9 -12 10c-27 4 -49 21 -49 51c0 32 26 57 57 57
c37 0 64 -30 64 -67c0 -39 -25 -78 -48 -108c-7 -9 -22 -32 -37 -32c-6 0 -12 2 -18 4z" />
    <glyph glyph-name="bullet" unicode="&#x2022;" horiz-adv-x="340" 
d="M173 255c-56 0 -96 43 -96 98c0 52 47 89 97 89s90 -44 90 -93c0 -50 -40 -94 -91 -94z" />
    <glyph glyph-name="endash" unicode="&#x2013;" horiz-adv-x="500" 
d="M44 211c-35 0 -54 0 -87 -12l-2 2l53 60c7 7 13 16 23 21c11 5 47 4 60 4h365c35 0 54 0 87 12l2 -2l-53 -60c-7 -7 -13 -16 -23 -21c-11 -5 -47 -4 -60 -4h-365z" />
    <glyph glyph-name="emdash" unicode="&#x2014;" horiz-adv-x="1000" 
d="M44 211c-35 0 -54 0 -87 -12l-2 2l53 60c7 7 13 16 23 21c11 5 47 4 60 4h865c35 0 54 0 87 12l2 -2l-53 -60c-7 -7 -13 -16 -23 -21c-11 -5 -47 -4 -60 -4h-865z" />
    <glyph glyph-name="trademark" unicode="&#x2122;" horiz-adv-x="920" 
d="M779 283h-58v322l-130 -322h-35l-121 322v-322h-65v375h96l107 -265l112 265h94v-375zM304 605h-119v-322h-65v322h-120v53h304v-53z" />
    <glyph glyph-name="afii10106" unicode="&#x459;" horiz-adv-x="620" 
d="M255 396c-4 0 -8 0 -12 -2l-20 -55l-86 -230c-30 -80 -68 -119 -124 -119h-3l-37 75h16c38 1 58 11 75 51l95 236c14 36 39 84 -9 105v3h245v-3c-44 -25 -38 -62 -38 -107v-240c0 -16 -1 -34 0 -48c17 -3 34 -5 51 -5c58 0 103 29 103 90c0 67 -68 98 -130 102
c17 8 52 15 80 15c82 0 149 -49 149 -137c0 -78 -72 -127 -166 -127h-216v3c44 25 38 61 38 108v283c-3 1 -7 2 -11 2z" />
    <glyph glyph-name="guilsinglright" unicode="&#x203a;" horiz-adv-x="260" 
d="M81 89h-31l59 161l-59 158h31l104 -158z" />
    <glyph glyph-name="afii10107" unicode="&#x45a;" horiz-adv-x="730" 
d="M384 216h-227v-106c0 -46 -6 -82 38 -107v-3h-167v3c44 25 38 61 38 108v239c0 45 6 82 -38 107v3h167v-3c-44 -25 -38 -62 -38 -107v-68h227v68c0 45 6 82 -38 107v3h167v-3c-44 -25 -38 -62 -38 -107v-240c0 -16 -1 -34 0 -48c17 -3 34 -5 51 -5c58 0 103 29 103 90
c0 67 -68 98 -130 102c17 8 52 15 80 15c82 0 149 -49 149 -137c0 -78 -72 -127 -166 -127h-216v3c44 25 38 61 38 108v105z" />
    <glyph glyph-name="afii10109" unicode="&#x45c;" horiz-adv-x="480" 
d="M194 460v-3c-45 -32 -37 -64 -37 -108v-238c0 -46 -6 -83 39 -108v-3h-167v3c43 25 37 62 37 108v238c0 46 6 83 -37 108v3h165zM176 257l83 91c15 17 51 55 51 80c0 14 -9 23 -19 29v3h152l-167 -193l122 -155c31 -41 61 -84 106 -112h-78c-58 0 -83 29 -102 56z
M323 648l55 -73l-272 -82z" />
    <glyph glyph-name="afii10108" unicode="&#x45b;" horiz-adv-x="540" 
d="M157 532v-122c30 43 98 63 147 63c138 0 171 -83 171 -180v-182c0 -46 -6 -83 38 -108v-3h-166v3c44 25 37 62 37 108v152c0 81 -26 144 -112 144c-88 0 -115 -49 -115 -138v-158c0 -46 -6 -83 38 -108v-3h-167v3c44 25 38 62 38 108v421h-68v36c37 6 57 12 68 17
c-1 29 -7 52 -38 70v3h65c23 0 47 0 61 16h3v-76h187c13 0 28 0 38 6h3v-91h-3c-16 21 -46 19 -72 19h-153z" />
    <glyph glyph-name="afii10193" unicode="&#x45f;" horiz-adv-x="540" 
d="M159 0h-131v3c38 20 38 51 38 96v261c0 47 0 76 -38 97v3h167v-3c-38 -21 -38 -50 -38 -97v-292s18 -4 58 -4h110c40 0 59 4 59 4v292c0 47 -1 76 -38 97v3h167v-3c-37 -21 -38 -50 -38 -96v-262c0 -45 -1 -76 37 -96v-3h-131c-74 0 -96 -25 -110 -60h-3
c-13 35 -36 60 -109 60z" />
    <glyph glyph-name="afii10062" unicode="&#x40e;" horiz-adv-x="620" 
d="M317 178c0 0 -59 48 -87 100l-156 283c-22 40 -43 75 -92 95v2h167v-8c-1 -15 19 -46 28 -62l180 -324l123 273c22 47 41 101 -22 119v2h155l-203 -456c-70 -161 -117 -217 -193 -217l-54 83h10c61 0 105 21 132 84zM195 836c24 -42 74 -56 119 -56c43 0 92 16 114 56h62
c-26 -77 -100 -121 -179 -121s-153 43 -177 121h61z" />
    <glyph glyph-name="afii10110" unicode="&#x45e;" horiz-adv-x="500" 
d="M368 343c15 39 38 92 -10 114v3h140l-208 -496c-54 -129 -124 -167 -218 -167c-43 0 -80 10 -119 25l90 65c17 -11 35 -24 56 -24c70 0 100 75 121 130l6 16l-4 5c-33 33 -33 38 -52 80l-122 266c-20 44 -32 79 -80 97v3h85c37 0 56 -15 67 -40l147 -331zM131 638
c24 -42 74 -56 119 -56c43 0 92 16 114 56h62c-26 -77 -100 -121 -179 -121s-153 43 -177 121h61z" />
    <glyph glyph-name="afii10057" unicode="&#x408;" horiz-adv-x="260" 
d="M87 517c0 46 6 119 -45 138v3h191v-3c-50 -19 -44 -92 -44 -138v-567c0 -106 -77 -164 -224 -180v3c111 71 122 131 122 239v505z" />
    <glyph glyph-name="currency" unicode="&#xa4;" 
d="M63 209c-22 39 -34 72 -34 117s11 83 34 120l-40 40l70 72l41 -41c34 22 77 35 118 35c43 0 86 -12 122 -35l41 41l69 -72l-41 -40c24 -36 35 -75 35 -119c0 -41 -11 -84 -35 -118l41 -40l-69 -71l-41 40c-36 -21 -75 -35 -118 -35s-86 11 -122 35l-41 -40l-70 71z
M126 326c0 -72 60 -126 131 -126c69 0 124 60 124 128c0 67 -55 127 -124 127c-72 0 -131 -55 -131 -129z" />
    <glyph glyph-name="afii10050" unicode="&#x490;" horiz-adv-x="420" 
d="M182 140c0 -45 -8 -118 42 -137v-3h-189v3c51 18 45 92 45 137v377c0 46 6 119 -45 138v3h239c46 0 93 2 128 39h3v-140h-3c-26 29 -72 29 -118 29c-35 0 -70 -1 -102 -7v-439z" />
    <glyph glyph-name="brokenbar" unicode="&#xa6;" horiz-adv-x="600" 
d="M271 658h57v-219h-57v219zM271 219h57v-219h-57v219z" />
    <glyph glyph-name="section" unicode="&#xa7;" horiz-adv-x="520" 
d="M428 548c-27 41 -81 57 -128 57c-44 0 -97 -16 -97 -68c0 -98 263 -87 263 -262c0 -60 -29 -108 -74 -145c24 -25 37 -59 37 -94c0 -120 -93 -185 -213 -185c-53 0 -108 9 -158 31v105l10 -5c48 -27 91 -51 148 -51c55 0 113 29 113 92c0 111 -269 115 -269 275
c0 65 34 106 84 142c-25 21 -38 56 -38 89c0 106 101 145 192 145c45 0 89 -7 130 -23v-103zM344 168c22 22 34 50 34 81c0 80 -127 112 -183 147c-23 -19 -42 -43 -42 -73c0 -26 9 -42 28 -59c19 -16 59 -37 82 -50z" />
    <glyph glyph-name="afii10023" unicode="&#x401;" horiz-adv-x="520" 
d="M189 84l127 -12c66 -6 135 15 185 59h3l-45 -131h-417v3c51 18 45 92 45 137v377c0 46 6 119 -45 138v3h320c17 0 34 -2 47 5h3v-117h-3c-31 36 -72 40 -118 40c-35 0 -70 -1 -102 -7v-186h119c16 0 32 0 44 6h3v-106h-3c-16 29 -58 28 -89 28h-74v-237zM166 718
c-33 0 -60 31 -60 64c0 36 29 62 65 62c33 0 58 -32 58 -64c0 -36 -27 -62 -63 -62zM350 718c-34 0 -60 32 -60 64c0 36 29 62 64 62c34 0 59 -31 59 -63c0 -37 -27 -63 -63 -63z" />
    <glyph glyph-name="copyright" unicode="&#xa9;" horiz-adv-x="700" 
d="M5 330c0 191 155 344 346 344c188 0 344 -153 344 -342c0 -195 -154 -348 -348 -348c-189 0 -342 158 -342 346zM641 327c0 167 -125 297 -292 297c-164 0 -290 -131 -290 -293c0 -166 127 -297 292 -297c163 0 290 131 290 293zM537 242c-26 -79 -108 -117 -186 -117
c-120 0 -196 85 -196 201c0 122 84 212 207 212c72 0 159 -37 175 -114l-63 -14c-10 59 -55 89 -114 89c-95 0 -143 -82 -143 -169c0 -88 46 -163 140 -163c63 0 105 34 124 91z" />
    <glyph glyph-name="afii10053" unicode="&#x404;" horiz-adv-x="600" 
d="M604 130l-51 -116c-47 -22 -99 -30 -151 -30c-236 0 -382 132 -382 346c0 207 146 344 351 344c61 0 123 -11 182 -25v-115c-55 35 -119 57 -185 57c-122 0 -211 -79 -230 -198h278c16 0 32 0 44 6h3v-106h-3c-16 29 -58 28 -89 28h-236c10 -137 107 -254 253 -254
c75 0 150 27 213 63h3z" />
    <glyph glyph-name="guillemotleft" unicode="&#xab;" horiz-adv-x="400" 
d="M309 408h31l-59 -161l59 -158h-31l-104 158zM182 408h31l-59 -161l59 -158h-31l-104 158z" />
    <glyph glyph-name="logicalnot" unicode="&#xac;" horiz-adv-x="600" 
d="M477 275h-411v56h467v-284h-56v228z" />
    <glyph glyph-name="registered" unicode="&#xae;" horiz-adv-x="700" 
d="M5 331c0 192 156 343 346 343c191 0 343 -155 343 -345c0 -192 -155 -345 -347 -345c-191 0 -342 157 -342 347zM640 331c0 165 -129 293 -292 293c-162 0 -289 -131 -289 -292c0 -163 123 -298 288 -298c166 0 293 130 293 297zM535 128h-68l-111 186h-89v-186h-58v411
h185c79 0 148 -18 148 -113c0 -77 -52 -110 -125 -112zM373 358c52 0 111 7 111 72c0 60 -57 65 -104 65h-113v-137h106z" />
    <glyph glyph-name="afii10056" unicode="&#x407;" horiz-adv-x="260" 
d="M81 517c0 46 7 119 -44 138v3h190v-3c-50 -19 -44 -93 -44 -138v-377c0 -45 -6 -118 44 -137v-3h-190v3c50 18 44 92 44 137v377zM36 718c-33 0 -60 31 -60 64c0 36 29 62 65 62c33 0 58 -32 58 -64c0 -36 -27 -62 -63 -62zM220 718c-34 0 -60 32 -60 64
c0 36 29 62 64 62c34 0 59 -31 59 -63c0 -37 -27 -63 -63 -63z" />
    <glyph glyph-name="degree" unicode="&#xb0;" horiz-adv-x="400" 
d="M200 374c-83 0 -150 67 -150 150c-1 82 67 150 150 150c82 0 150 -68 150 -150c0 -83 -68 -150 -150 -150zM199 634c-60 0 -110 -50 -109 -110c0 -61 49 -110 110 -110c60 0 110 49 110 110c0 60 -50 110 -111 110z" />
    <glyph glyph-name="plusminus" unicode="&#xb1;" horiz-adv-x="600" 
d="M271 318v150h56v-150h205v-56h-205v-150h-56v150h-205v56h205zM66 56h466v-56h-466v56z" />
    <glyph glyph-name="afii10055" unicode="&#x406;" horiz-adv-x="260" 
d="M81 517c0 46 7 119 -44 138v3h190v-3c-50 -19 -44 -93 -44 -138v-377c0 -45 -6 -118 44 -137v-3h-190v3c50 18 44 92 44 137v377z" />
    <glyph glyph-name="afii10103" unicode="&#x456;" horiz-adv-x="240" 
d="M94 460c23 0 48 1 65 16h3v-365c0 -46 -6 -83 38 -108v-3h-167v3c44 25 38 62 38 108v239c0 46 6 82 -38 107v3h61zM113 520c-37 0 -65 29 -65 66c0 35 32 59 65 59c34 0 60 -29 60 -62s-26 -63 -60 -63z" />
    <glyph glyph-name="afii10098" unicode="&#x491;" horiz-adv-x="360" 
d="M228 460c46 0 95 7 116 45h3v-142h-3c-14 37 -73 35 -106 35c0 0 -44 1 -81 -3v-285c0 -46 -6 -82 38 -107v-3h-167v3c44 25 38 61 38 108v239c0 45 6 82 -38 107v3h200z" />
    <glyph glyph-name="mu" unicode="&#xb5;" horiz-adv-x="540" 
d="M386 65c-36 -55 -74 -78 -144 -78c-32 0 -59 5 -81 14l3 -78c1 -25 1 -78 11 -99c6 -15 15 -22 29 -26v-3h-122c-9 0 -28 -2 -28 9c0 7 1 13 1 20l15 333c-1 12 -2 25 -2 38v154c0 46 6 83 -38 108v3h65c22 0 47 1 61 13h3v-261c0 -92 26 -149 113 -149
c66 0 114 54 114 131v154c0 47 6 83 -38 109v3h51c26 0 57 -4 75 13h3v-364c0 -46 -6 -83 38 -106v-3h-129v65z" />
    <glyph glyph-name="mu" unicode="&#x3bc;" horiz-adv-x="540" 
d="M386 65c-36 -55 -74 -78 -144 -78c-32 0 -59 5 -81 14l3 -78c1 -25 1 -78 11 -99c6 -15 15 -22 29 -26v-3h-122c-9 0 -28 -2 -28 9c0 7 1 13 1 20l15 333c-1 12 -2 25 -2 38v154c0 46 6 83 -38 108v3h65c22 0 47 1 61 13h3v-261c0 -92 26 -149 113 -149
c66 0 114 54 114 131v154c0 47 6 83 -38 109v3h51c26 0 57 -4 75 13h3v-364c0 -46 -6 -83 38 -106v-3h-129v65z" />
    <glyph glyph-name="mu" unicode="&#x3bc;" horiz-adv-x="540" 
d="M386 65c-36 -55 -74 -78 -144 -78c-32 0 -59 5 -81 14l3 -78c1 -25 1 -78 11 -99c6 -15 15 -22 29 -26v-3h-122c-9 0 -28 -2 -28 9c0 7 1 13 1 20l15 333c-1 12 -2 25 -2 38v154c0 46 6 83 -38 108v3h65c22 0 47 1 61 13h3v-261c0 -92 26 -149 113 -149
c66 0 114 54 114 131v154c0 47 6 83 -38 109v3h51c26 0 57 -4 75 13h3v-364c0 -46 -6 -83 38 -106v-3h-129v65z" />
    <glyph glyph-name="paragraph" unicode="&#xb6;" horiz-adv-x="540" 
d="M297 586v-699h-118v3c44 25 38 61 38 107v298c-101 -3 -184 82 -184 181c0 133 95 182 216 182h259v-3c-44 -25 -38 -61 -38 -107v-551c0 -46 -6 -82 38 -107v-3h-118v699h-93z" />
    <glyph glyph-name="periodcentered" unicode="&#xb7;" horiz-adv-x="280" 
d="M141 172c-37 0 -63 29 -63 66c0 34 31 58 64 58s60 -29 60 -61c0 -34 -27 -63 -61 -63z" />
    <glyph glyph-name="periodcentered" unicode="&#x2219;" horiz-adv-x="280" 
d="M141 172c-37 0 -63 29 -63 66c0 34 31 58 64 58s60 -29 60 -61c0 -34 -27 -63 -61 -63z" />
    <glyph glyph-name="periodcentered" unicode="&#x2219;" horiz-adv-x="280" 
d="M141 172c-37 0 -63 29 -63 66c0 34 31 58 64 58s60 -29 60 -61c0 -34 -27 -63 -61 -63z" />
    <glyph glyph-name="afii10071" unicode="&#x451;" horiz-adv-x="520" 
d="M133 246c2 -122 87 -193 200 -193c60 0 118 17 164 53h3l-50 -94c-43 -18 -91 -25 -138 -25c-170 0 -287 107 -287 246s101 240 250 240c136 0 229 -98 225 -227h-367zM166 520c-33 0 -60 31 -60 64c0 36 29 62 65 62c33 0 58 -32 58 -64c0 -36 -27 -62 -63 -62zM350 520
c-34 0 -60 32 -60 64c0 36 29 62 64 62c34 0 59 -31 59 -63c0 -37 -27 -63 -63 -63zM395 304c-11 70 -57 103 -129 103c-67 0 -117 -40 -129 -103h258z" />
    <glyph glyph-name="afii61352" unicode="&#x2116;" horiz-adv-x="1100" 
d="M1060 535c0 -79 -72 -137 -148 -137c-78 0 -144 55 -144 136c0 85 69 140 150 140c80 0 142 -58 142 -139zM825 544c0 -52 32 -108 90 -108c53 0 88 41 88 92c0 55 -30 108 -90 108c-53 0 -88 -41 -88 -92zM1060 332v-46h-292v46h292zM158 130c0 -56 -1 -96 52 -127v-3
h-177v3c53 31 53 71 53 127v399c0 56 0 96 -52 126v3h146v-1c4 -12 8 -17 15 -25l14 -20l366 -462v379c0 56 1 96 -52 126v3h176v-3c-52 -30 -52 -70 -52 -126v-561c-71 24 -102 57 -146 114l-343 435v-387z" />
    <glyph glyph-name="afii10101" unicode="&#x454;" horiz-adv-x="460" 
d="M480 102l-52 -95c-42 -16 -88 -20 -132 -20c-154 0 -274 101 -274 231c0 172 134 255 285 255c36 0 73 -4 108 -12v-103h-3c-29 33 -77 49 -122 49c-84 0 -147 -50 -163 -125h203c12 0 24 0 33 4h2v-91h-2c-12 23 -44 21 -67 21h-171c14 -99 104 -163 206 -163
c51 0 107 20 146 49h3z" />
    <glyph glyph-name="guillemotright" unicode="&#xbb;" horiz-adv-x="400" 
d="M98 89h-30l59 161l-59 158h30l105 -158zM226 89h-31l59 161l-59 158h31l104 -158z" />
    <glyph glyph-name="afii10105" unicode="&#x458;" horiz-adv-x="240" 
d="M115 520c-37 0 -63 29 -63 65c0 35 30 60 64 60c33 0 60 -30 60 -63s-27 -62 -61 -62zM102 460c23 0 47 1 61 13h3v-484c0 -50 7 -110 -31 -150c-37 -39 -111 -67 -159 -65v3c93 52 99 114 99 218v355c0 46 6 82 -38 107v3h65z" />
    <glyph glyph-name="afii10054" unicode="&#x405;" horiz-adv-x="520" 
d="M428 539c-39 40 -101 63 -157 63c-57 0 -129 -22 -129 -91c0 -137 344 -135 344 -320c0 -107 -112 -207 -268 -207c-61 0 -122 9 -179 30l-29 125c59 -51 141 -83 219 -83c57 0 143 34 143 104c0 156 -344 128 -344 340c0 126 129 174 251 174c50 0 101 -7 149 -22v-113z
" />
    <glyph glyph-name="afii10102" unicode="&#x455;" horiz-adv-x="420" 
d="M345 375c-37 20 -79 32 -123 32c-33 0 -93 -8 -93 -48c0 -89 271 -57 271 -216c0 -93 -95 -156 -224 -156c-45 0 -88 7 -130 24l-35 98c58 -37 119 -56 188 -56c41 0 110 14 110 65c0 101 -271 69 -271 221c0 106 110 134 196 134c37 0 75 -3 111 -13v-85z" />
    <glyph glyph-name="afii10104" unicode="&#x457;" horiz-adv-x="240" 
d="M94 460c23 0 48 1 65 13h3v-362c0 -46 -6 -83 38 -108v-3h-167v3c44 25 38 62 38 108v239c0 46 6 82 -38 107v3h61zM26 520c-33 0 -60 31 -60 64c0 36 29 62 65 62c33 0 58 -32 58 -64c0 -36 -27 -62 -63 -62zM210 520c-34 0 -60 32 -60 64c0 36 29 62 64 62
c34 0 59 -31 59 -63c0 -37 -27 -63 -63 -63z" />
    <glyph glyph-name="afii10017" unicode="&#x410;" horiz-adv-x="680" 
d="M201 247l-52 -141c-21 -56 -28 -85 20 -103v-3h-184v3c58 29 75 85 97 142l167 417c14 36 33 78 -15 93v3h158l208 -513c23 -57 41 -113 98 -142v-3h-205v3c49 22 41 33 14 103l-54 141h-252zM326 573l-99 -252h197z" />
    <glyph glyph-name="afii10018" unicode="&#x411;" horiz-adv-x="580" 
d="M185 579v-499l87 -8c82 -8 165 30 165 125c0 97 -72 162 -212 162c35 23 96 33 160 24c92 -13 163 -79 163 -177c0 -77 -53 -143 -120 -175c-70 -34 -149 -31 -224 -31h-165v3c50 19 44 92 44 138v377c0 50 3 119 -45 137v3h320c17 0 34 -2 47 5h3v-117h-3
c-31 36 -72 40 -118 40c-35 0 -70 -1 -102 -7z" />
    <glyph glyph-name="afii10019" unicode="&#x412;" horiz-adv-x="580" 
d="M83 518c0 45 7 118 -44 137v3h237c132 0 209 -56 209 -145c0 -67 -43 -105 -100 -130c90 -19 163 -79 163 -177c0 -77 -53 -143 -120 -175c-70 -34 -149 -31 -224 -31h-165v3c50 19 44 92 44 138v377zM272 72c82 -8 165 30 165 125c0 97 -94 139 -182 134l-70 -4v-247z
M218 393c65 0 158 22 158 104c0 69 -64 105 -124 99l-67 -7v-196h33z" />
    <glyph glyph-name="afii10020" unicode="&#x413;" horiz-adv-x="420" 
d="M182 140c0 -45 -8 -118 42 -137v-3h-189v3c51 18 45 92 45 137v377c0 46 6 119 -45 138v3h320c17 0 34 -2 47 5h3v-116h-3c-31 35 -72 39 -118 39c-35 0 -70 -1 -102 -7v-439z" />
    <glyph glyph-name="afii10021" unicode="&#x414;" horiz-adv-x="620" 
d="M0 79c0 0 4 -2 7 -2c34 0 57 42 70 75l158 411c14 36 33 77 -15 92v3h158s0 -30 27 -103l151 -409c9 -24 19 -48 29 -68h51l-38 -138h-3c-13 35 -35 60 -109 60h-376c-90 0 -117 -31 -148 -60h-3zM114 72h360l-171 476l-144 -396c-16 -43 -28 -64 -45 -80z" />
    <glyph glyph-name="afii10022" unicode="&#x415;" horiz-adv-x="520" 
d="M189 84l127 -12c66 -6 135 15 185 59h3l-45 -131h-417v3c51 18 45 92 45 137v377c0 46 6 119 -45 138v3h320c17 0 34 -2 47 5h3v-117h-3c-31 36 -72 40 -118 40c-35 0 -70 -1 -102 -7v-186h119c16 0 32 0 44 6h3v-106h-3c-16 29 -58 28 -89 28h-74v-237z" />
    <glyph glyph-name="afii10024" unicode="&#x416;" horiz-adv-x="880" 
d="M251 516l125 -174l-216 -299c-18 -24 -64 -43 -113 -43h-94v3c51 25 89 53 120 94l196 265l-224 295v1h180v-3c-67 -30 -7 -92 26 -139zM629 516c33 47 93 109 26 139v3h180v-1l-224 -295l196 -265c31 -41 69 -69 120 -94v-3h-94c-49 0 -95 19 -113 43l-216 299zM536 658
v-3c-51 -18 -45 -92 -45 -137v-377c0 -46 -6 -119 45 -138v-3h-192v3c51 19 45 92 45 138v377c0 45 6 119 -45 137v3h192z" />
    <glyph glyph-name="afii10025" unicode="&#x417;" horiz-adv-x="520" 
d="M137 398c0 0 34 -4 55 -4c67 0 140 31 140 102c0 65 -48 101 -125 101c-67 0 -118 -19 -158 -52h-3v103c59 12 121 26 180 26c101 0 214 -45 214 -156c0 -76 -46 -119 -93 -141c70 -20 142 -62 142 -165c0 -161 -150 -228 -302 -228c-44 0 -91 10 -131 23l-46 116h3
c50 -41 116 -61 187 -61c98 0 175 46 175 144c0 77 -54 119 -159 119c-30 0 -55 -3 -79 -10v83z" />
    <glyph glyph-name="afii10026" unicode="&#x418;" horiz-adv-x="720" 
d="M540 130v391l-321 -439c-44 -57 -75 -90 -146 -114v561c0 56 0 96 -52 126v3h206v-3c-53 -30 -52 -70 -52 -126v-379l336 462l14 20c7 8 11 13 15 25v1h146v-3c-52 -30 -44 -90 -44 -126v-399c0 -50 -8 -96 45 -127v-3h-207v3c53 31 60 71 60 127z" />
    <glyph glyph-name="afii10027" unicode="&#x419;" horiz-adv-x="720" 
d="M244 836c24 -42 74 -56 119 -56c43 0 92 16 114 56h62c-26 -77 -100 -121 -179 -121s-153 43 -177 121h61zM540 130v391l-321 -439c-44 -57 -75 -90 -146 -114v561c0 56 0 96 -52 126v3h206v-3c-53 -30 -52 -70 -52 -126v-379l336 462l14 20c7 8 11 13 15 25v1h146v-3
c-52 -30 -44 -90 -44 -126v-399c0 -50 -8 -96 45 -127v-3h-207v3c53 31 60 71 60 127z" />
    <glyph glyph-name="afii10028" unicode="&#x41a;" horiz-adv-x="580" 
d="M83 518c0 45 6 118 -45 137v3h192v-3c-51 -18 -45 -92 -45 -137v-377c0 -46 -6 -119 45 -138v-3h-192v3c51 19 45 93 45 138v377zM329 516c33 47 93 109 26 139v3h180v-1l-230 -295l202 -265c31 -41 69 -69 120 -94v-3h-94c-49 0 -95 19 -113 43l-222 299z" />
    <glyph glyph-name="afii10029" unicode="&#x41b;" horiz-adv-x="620" 
d="M77 152l158 411c14 36 33 77 -15 92v3h158s0 -30 27 -103l151 -409c19 -51 34 -109 78 -143v-3h-186v3c38 18 39 32 14 102l-157 443l-144 -396c-42 -117 -94 -167 -167 -167l-39 83c58 0 97 20 122 84z" />
    <glyph glyph-name="afii10030" unicode="&#x41c;" horiz-adv-x="900" 
d="M627 595c8 21 15 41 15 62v1h173v-3c-24 -7 -31 -36 -31 -59l66 -491c6 -47 11 -74 51 -102v-3h-193v3c35 11 41 41 41 75l-57 482l-224 -573c-50 38 -64 65 -88 121l-190 451l-57 -430c-8 -61 -15 -105 32 -126v-3h-163v3c42 37 48 86 56 140l57 419c4 28 15 68 -31 93
v3h175v-1c0 -16 8 -31 14 -45l188 -441z" />
    <glyph glyph-name="afii10031" unicode="&#x41d;" horiz-adv-x="720" 
d="M179 321v-181c0 -45 -6 -118 44 -137v-3h-190v3c50 19 44 92 44 137v378c0 45 7 118 -44 137v3h190v-3c-50 -19 -44 -92 -44 -138v-124h361v124c0 46 7 119 -44 138v3h191v-3c-51 -19 -45 -92 -45 -137v-378c0 -45 -6 -118 45 -137v-3h-191v3c51 19 44 92 44 137v181
h-361z" />
    <glyph glyph-name="afii10032" unicode="&#x41e;" horiz-adv-x="770" 
d="M756 336c0 -204 -169 -352 -368 -352c-198 0 -365 142 -365 347c0 190 165 349 375 344c210 1 358 -159 358 -339zM137 340c0 -140 99 -284 256 -284c152 0 249 111 249 260c0 146 -93 287 -251 287c-155 0 -254 -112 -254 -263z" />
    <glyph glyph-name="afii10033" unicode="&#x41f;" horiz-adv-x="720" 
d="M179 580v-440c0 -45 -6 -118 44 -137v-3h-190v3c50 19 44 92 44 137v378c0 45 7 118 -44 137v3h654v-3c-51 -19 -45 -92 -45 -137v-378c0 -45 -6 -118 45 -137v-3h-191v3c51 19 44 92 44 137v440c-33 5 -63 6 -103 6h-156c-40 0 -70 1 -102 -6z" />
    <glyph glyph-name="afii10034" unicode="&#x420;" horiz-adv-x="520" 
d="M288 658c130 0 229 -63 229 -175c0 -115 -107 -188 -220 -188c-25 0 -50 3 -73 14c86 5 179 58 179 154c0 88 -62 123 -142 123c-24 0 -47 -2 -70 -6v-451c0 -56 -1 -96 52 -126v-3h-199v3c51 18 45 92 45 137v377c0 45 6 118 -44 138v3h243z" />
    <glyph glyph-name="afii10035" unicode="&#x421;" horiz-adv-x="600" 
d="M553 534c-55 35 -119 57 -185 57c-138 0 -234 -101 -234 -246c0 -147 100 -278 254 -278c75 0 150 27 213 63h3l-51 -116c-47 -22 -99 -30 -151 -30c-236 0 -382 132 -382 346c0 207 146 344 351 344c61 0 123 -11 182 -25v-115z" />
    <glyph glyph-name="afii10036" unicode="&#x422;" horiz-adv-x="460" 
d="M275 130c0 -57 -1 -96 52 -127v-3h-198v3c50 19 44 92 44 137v446h-88c-43 0 -88 -11 -119 -40h-3l35 119h3c12 -5 25 -5 38 -7h398c17 0 33 1 46 7h3l-32 -119h-3c-13 35 -53 40 -86 40h-90v-456z" />
    <glyph glyph-name="afii10037" unicode="&#x423;" horiz-adv-x="620" 
d="M317 178c0 0 -59 48 -87 100l-156 283c-22 40 -43 75 -92 95v2h167v-8c-1 -15 19 -46 28 -62l180 -324l123 273c22 47 41 101 -22 119v2h155l-203 -456c-70 -161 -117 -217 -193 -217l-54 83h10c61 0 105 21 132 84z" />
    <glyph glyph-name="afii10038" unicode="&#x424;" horiz-adv-x="780" 
d="M339 552c0 28 6 83 -44 103v3h190v-3c-50 -20 -44 -73 -44 -103h92c130 0 234 -76 234 -210c0 -138 -107 -226 -220 -226c-25 0 -50 3 -73 17c86 6 179 71 179 193c0 110 -62 154 -142 154c-24 0 -47 -3 -70 -8v-343c0 -56 -1 -96 52 -126v-3h-206v3c53 30 52 70 52 126
v343c-23 5 -46 8 -70 8c-80 0 -142 -44 -142 -154c0 -122 93 -187 179 -193c-23 -14 -48 -17 -73 -17c-113 0 -220 88 -220 226c0 134 104 210 234 210h92z" />
    <glyph glyph-name="afii10039" unicode="&#x425;" horiz-adv-x="620" 
d="M173 102c-24 -32 -54 -75 7 -99v-3h-194v3l277 348l-145 210c-26 38 -54 78 -96 97h116c31 0 40 -8 50 -24l145 -209l99 134c25 34 59 88 -9 96v3h183l-227 -296l160 -238c32 -48 63 -103 120 -124h-115c-41 0 -58 26 -65 35l-167 251z" />
    <glyph glyph-name="afii10040" unicode="&#x426;" horiz-adv-x="720" 
d="M33 0v3c50 19 44 92 44 137v378c0 45 7 118 -44 137v3h190v-3c-50 -19 -44 -92 -44 -138v-439s44 -6 99 -6h162c55 0 100 6 100 6v439c0 46 7 119 -44 138v3h191v-3c-51 -19 -45 -92 -45 -137v-378c0 -20 -1 -39 2 -62h62l-38 -138h-3c-13 35 -35 60 -109 60h-523z" />
    <glyph glyph-name="afii10041" unicode="&#x427;" horiz-adv-x="680" 
d="M67 433v85c0 45 7 118 -44 137v3h190v-3c-50 -19 -44 -92 -44 -138v-70c0 -78 66 -104 134 -104c71 0 143 22 197 52v122c0 46 7 119 -44 138v3h191v-3c-51 -19 -45 -92 -45 -137v-378c0 -45 -6 -118 45 -137v-3h-191v3c51 19 44 92 44 137v178
c-69 -32 -149 -57 -236 -57s-197 41 -197 172z" />
    <glyph glyph-name="afii10042" unicode="&#x428;" horiz-adv-x="860" 
d="M33 0v3c50 19 44 92 44 137v378c0 45 7 118 -44 137v3h190v-3c-50 -19 -44 -92 -44 -138v-439s44 -6 99 -6s100 6 100 6v439c0 46 7 119 -44 138v3h190v-3c-50 -19 -44 -92 -44 -138v-439s44 -6 99 -6s100 6 100 6v439c0 46 7 119 -44 138v3h191v-3
c-51 -19 -45 -92 -45 -137v-378c0 -45 -6 -118 45 -137v-3h-793z" />
    <glyph glyph-name="afii10043" unicode="&#x429;" horiz-adv-x="860" 
d="M33 0v3c50 19 44 92 44 137v378c0 45 7 118 -44 137v3h190v-3c-50 -19 -44 -92 -44 -138v-439s44 -4 99 -4s100 4 100 4v439c0 46 7 119 -44 138v3h190v-3c-50 -19 -44 -92 -44 -138v-439s44 -4 99 -4s100 4 100 4v439c0 46 7 119 -44 138v3h191v-3
c-51 -19 -45 -92 -45 -137v-378c0 -20 1 -41 2 -62h62l-38 -138h-3c-13 35 -35 60 -109 60h-662z" />
    <glyph glyph-name="afii10044" unicode="&#x42a;" horiz-adv-x="580" 
d="M303 658v-3c-53 -30 -52 -70 -52 -126v-451c23 -4 46 -6 70 -6c80 0 142 35 142 123c0 96 -93 149 -179 154c23 11 48 14 73 14c113 0 220 -63 220 -188c0 -112 -99 -175 -229 -175h-243v3c50 20 44 93 44 138v377c0 20 1 45 -2 68h-62c-43 0 -88 -11 -119 -40h-3l35 119
h3c12 -5 25 -5 38 -7h25h239z" />
    <glyph glyph-name="afii10045" unicode="&#x42b;" horiz-adv-x="780" 
d="M285 0h-243v3c50 20 44 93 44 138v377c0 45 6 119 -45 137v3h199v-3c-53 -30 -52 -70 -52 -126v-451c23 -4 46 -6 70 -6c80 0 142 35 142 123c0 96 -93 149 -179 154c23 11 48 14 73 14c113 0 220 -63 220 -188c0 -112 -99 -175 -229 -175zM592 517c0 46 7 119 -44 138v3
h190v-3c-50 -19 -44 -93 -44 -138v-377c0 -45 -6 -118 44 -137v-3h-190v3c50 18 44 92 44 137v377z" />
    <glyph glyph-name="afii10046" unicode="&#x42c;" horiz-adv-x="520" 
d="M288 0h-243v3c50 20 44 93 44 138v377c0 45 6 119 -45 137v3h199v-3c-53 -30 -52 -70 -52 -126v-451c23 -4 46 -6 70 -6c80 0 142 35 142 123c0 96 -93 149 -179 154c23 11 48 14 73 14c113 0 220 -63 220 -188c0 -112 -99 -175 -229 -175z" />
    <glyph glyph-name="afii10047" unicode="&#x42d;" horiz-adv-x="600" 
d="M462 393c-19 119 -108 200 -230 200c-66 0 -132 -24 -185 -59v115c59 14 121 25 182 25c205 0 351 -137 351 -344c0 -198 -146 -346 -382 -346c-52 0 -104 8 -151 30l-41 116h3c53 -38 128 -65 203 -65c146 0 243 119 253 256h-236c-31 0 -73 1 -89 -28h-3v106h3
c12 -6 28 -6 44 -6h278z" />
    <glyph glyph-name="afii10048" unicode="&#x42e;" horiz-adv-x="1000" 
d="M264 321h-85v-181c0 -45 -6 -118 44 -137v-3h-190v3c50 19 44 92 44 137v378c0 45 7 118 -44 137v3h190v-3c-50 -19 -44 -92 -44 -138v-124h91c29 161 172 286 359 282c210 1 348 -159 348 -339c0 -204 -159 -352 -358 -352c-195 0 -350 137 -355 337zM378 340
c0 -140 89 -284 246 -284c152 0 239 111 239 260c0 146 -83 287 -241 287c-155 0 -244 -112 -244 -263z" />
    <glyph glyph-name="afii10049" unicode="&#x42f;" horiz-adv-x="540" 
d="M268 658h238v-3c-51 -19 -44 -92 -44 -138v-377c0 -45 -7 -119 44 -137v-3h-191v3c51 18 45 91 45 137v448c-23 4 -45 7 -68 8c-67 3 -129 -39 -129 -111c0 -94 93 -131 173 -143c0 0 -53 -87 -92 -141c-45 -62 -118 -151 -118 -151c-28 -36 -67 -55 -120 -53l-92 3v3
c49 20 113 76 162 137l144 181c-82 19 -159 88 -159 176c0 91 73 161 207 161z" />
    <glyph glyph-name="afii10065" unicode="&#x430;" horiz-adv-x="480" 
d="M446 -13c-66 4 -132 24 -132 104v158c-29 -15 -63 -23 -96 -31c-48 -11 -102 -22 -102 -83c0 -62 56 -82 109 -82c24 0 48 7 72 14l-59 -75c-17 -3 -35 -5 -52 -5c-101 0 -171 64 -171 147c0 186 299 100 299 209c0 48 -59 64 -96 64c-51 0 -91 -19 -136 -40l67 100l65 6
c108 0 190 -31 191 -152v-150c0 -79 2 -109 85 -118z" />
    <glyph glyph-name="afii10066" unicode="&#x431;" 
d="M221 643l139 52c49 18 87 36 108 77h3c0 -138 -39 -154 -103 -178l-147 -54c-70 -26 -121 -88 -122 -136c51 46 121 69 189 69c64 0 119 -17 167 -59c51 -45 82 -111 82 -179c0 -144 -120 -248 -261 -248c-137 0 -253 97 -253 239c0 141 28 353 198 417zM436 214
c0 97 -52 193 -159 193c-93 0 -153 -73 -153 -163c0 -92 55 -191 157 -191c92 0 155 71 155 161z" />
    <glyph glyph-name="afii10067" unicode="&#x432;" horiz-adv-x="460" 
d="M66 362c0 48 0 73 -38 95v3h220c95 0 151 -39 151 -101c0 -47 -29 -74 -70 -91c65 -14 118 -56 118 -124c0 -108 -104 -144 -239 -144h-180v3c39 22 38 50 38 96v263zM201 276c47 0 106 13 106 64c0 43 -36 65 -80 62l-70 -5v-121h44zM230 59c59 -4 119 18 119 78
s-53 81 -121 81h-71v-153z" />
    <glyph glyph-name="afii10068" unicode="&#x433;" horiz-adv-x="360" 
d="M298 460c17 2 33 1 46 7h3v-114h-3c-14 37 -73 45 -106 45c0 0 -44 1 -81 -3v-285c0 -46 -6 -82 38 -107v-3h-167v3c44 25 38 61 38 108v239c0 45 6 82 -38 107v3h270z" />
    <glyph glyph-name="afii10069" unicode="&#x434;" horiz-adv-x="460" 
d="M1 68c0 0 8 -2 14 0c19 5 33 15 47 48l97 236c14 36 39 84 -9 105v3h131v-15c0 -10 10 -35 14 -46l103 -282c7 -20 15 -36 24 -49h50l-36 -128h-3c-18 46 -46 60 -115 60h-194c-67 0 -111 -12 -164 -60h-2zM108 66h215l-100 273l-91 -230c-6 -16 -15 -33 -24 -43z" />
    <glyph glyph-name="afii10070" unicode="&#x435;" horiz-adv-x="520" 
d="M133 246c2 -122 87 -193 200 -193c60 0 118 17 164 53h3l-50 -94c-43 -18 -91 -25 -138 -25c-170 0 -287 107 -287 246s101 240 250 240c136 0 229 -98 225 -227h-367zM395 304c-11 70 -57 103 -129 103c-67 0 -117 -40 -129 -103h258z" />
    <glyph glyph-name="afii10072" unicode="&#x436;" horiz-adv-x="737" 
d="M304 257l-148 -201c-19 -27 -44 -56 -102 -56h-78c45 28 75 71 106 112l122 155l-167 193h152v-3c-10 -6 -19 -15 -19 -29c0 -25 36 -63 51 -80zM433 257l83 91c15 17 51 55 51 80c0 14 -9 23 -19 29v3h152l-167 -193l122 -155c31 -41 61 -84 106 -112h-78
c-58 0 -83 29 -102 56zM451 460v-3c-44 -31 -37 -64 -37 -108v-238c0 -46 -6 -83 39 -108v-3h-169v3c45 25 39 62 39 108v238c0 44 6 77 -37 108v3h165z" />
    <glyph glyph-name="afii10073" unicode="&#x437;" horiz-adv-x="420" 
d="M170 54c77 0 132 29 132 87c0 51 -47 77 -114 77c-36 0 -55 -3 -78 -7v76c22 -2 45 -3 72 -3c51 0 88 23 88 63s-36 62 -88 62c-55 0 -100 -18 -132 -51h-3v103c37 7 87 12 139 12c95 0 173 -40 173 -111c0 -54 -38 -81 -64 -98c45 -12 103 -51 103 -123
c0 -111 -104 -154 -233 -154c-44 0 -94 8 -131 20l-42 95h3c45 -29 101 -48 175 -48z" />
    <glyph glyph-name="afii10074" unicode="&#x438;" horiz-adv-x="541" 
d="M384 91v253l-198 -287c-32 -40 -72 -63 -123 -79v392c0 39 0 66 -38 87v3h166v-3c-38 -21 -37 -48 -37 -87v-245l219 317c5 5 8 9 11 17v1h129v-3c-38 -21 -38 -62 -38 -87v-279c0 -35 0 -66 38 -88v-3h-173v3c39 22 44 49 44 88z" />
    <glyph glyph-name="afii10075" unicode="&#x439;" horiz-adv-x="541" 
d="M151 638c24 -42 74 -56 119 -56c43 0 92 16 114 56h62c-26 -77 -100 -121 -179 -121s-153 43 -177 121h61zM384 91v253l-198 -287c-32 -40 -72 -63 -123 -79v392c0 39 0 66 -38 87v3h166v-3c-38 -21 -37 -48 -37 -87v-245l219 317c5 5 8 9 11 17v1h129v-3
c-38 -21 -38 -62 -38 -87v-279c0 -35 0 -66 38 -88v-3h-173v3c39 22 44 49 44 88z" />
    <glyph glyph-name="afii10076" unicode="&#x43a;" horiz-adv-x="480" 
d="M194 460v-3c-45 -32 -37 -64 -37 -108v-238c0 -46 -6 -83 39 -108v-3h-167v3c43 25 37 62 37 108v238c0 46 6 83 -37 108v3h165zM176 257l83 91c15 17 51 55 51 80c0 14 -9 23 -19 29v3h152l-167 -193l122 -155c31 -41 61 -84 106 -112h-78c-58 0 -83 29 -102 56z" />
    <glyph glyph-name="afii10077" unicode="&#x43b;" horiz-adv-x="460" 
d="M314 97l-91 242l-86 -230c-30 -80 -68 -119 -124 -119h-3l-37 75h16c38 1 58 11 75 51l95 236c14 36 39 84 -9 105v3h131v-15c0 -10 10 -35 14 -46l105 -282c28 -76 48 -104 74 -115v-2h-167v2c28 10 30 35 7 95z" />
    <glyph glyph-name="afii10078" unicode="&#x43c;" horiz-adv-x="640" 
d="M425 416c6 16 11 30 11 43v1h148v-2c-17 -5 -28 -26 -28 -42l47 -343c5 -32 14 -51 43 -71v-2h-168v2c25 8 37 38 34 62l-39 296l-145 -369c-36 26 -54 45 -70 84l-114 285l-37 -270c-7 -42 -5 -73 29 -88v-2h-140v2c31 26 41 60 47 98l41 293c3 19 5 47 -28 65v2h78h71
v-1c0 -5 11 -29 15 -40l101 -257z" />
    <glyph glyph-name="afii10079" unicode="&#x43d;" horiz-adv-x="540" 
d="M475 110c0 -46 -6 -82 38 -107v-3h-167v3c44 25 38 61 38 107v106h-227v-106c0 -46 -6 -82 38 -107v-3h-167v3c44 25 38 61 38 108v239c0 45 6 82 -38 107v3h167v-3c-44 -25 -38 -62 -38 -107v-68h227v68c0 46 6 82 -38 107v3h167v-3c-44 -25 -38 -62 -38 -108v-239z" />
    <glyph glyph-name="afii10080" unicode="&#x43e;" 
d="M23 226c0 150 121 247 265 247c64 0 119 -17 167 -59c51 -45 82 -111 82 -179c0 -144 -120 -248 -261 -248c-137 0 -253 97 -253 239zM436 214c0 97 -52 193 -159 193c-93 0 -153 -73 -153 -163c0 -92 55 -191 157 -191c92 0 155 71 155 161z" />
    <glyph glyph-name="afii10081" unicode="&#x43f;" horiz-adv-x="540" 
d="M475 110c0 -46 -6 -82 38 -107v-3h-167v3c44 25 38 61 38 107v282c-14 2 -38 4 -62 4h-106c-23 0 -43 -2 -59 -4v-282c0 -46 -6 -82 38 -107v-3h-167v3c44 25 38 61 38 108v239c0 45 6 82 -38 107v3h485v-3c-44 -25 -38 -62 -38 -108v-239z" />
    <glyph glyph-name="afii10082" unicode="&#x440;" horiz-adv-x="580" 
d="M96 460c22 0 46 2 60 13h3v-71c34 47 108 71 164 71c139 0 229 -107 229 -238c0 -139 -101 -248 -241 -248c-26 0 -51 4 -74 13l-54 82c35 -17 71 -29 109 -29c106 0 159 71 159 171c0 93 -50 179 -153 179c-42 0 -83 -17 -111 -48c-29 -31 -28 -67 -28 -107v-343
c0 -46 -6 -82 38 -107v-3h-167v3c44 25 38 61 38 107v445c0 46 6 83 -38 107v3h66z" />
    <glyph glyph-name="afii10083" unicode="&#x441;" horiz-adv-x="460" 
d="M415 358h-3c-29 33 -77 49 -122 49c-97 0 -167 -68 -167 -163c0 -115 97 -191 208 -191c51 0 107 20 146 49h3l-52 -95c-42 -16 -88 -20 -132 -20c-154 0 -274 101 -274 231c0 172 134 255 285 255c36 0 73 -4 108 -12v-103z" />
    <glyph glyph-name="afii10084" unicode="&#x442;" horiz-adv-x="380" 
d="M141 398h-33c-43 0 -86 -15 -119 -45h-3l35 114h3c12 -5 25 -5 38 -7h278c17 0 33 1 46 7h3l-32 -114h-3c-14 37 -53 45 -86 45h-36v-288c0 -46 -6 -82 38 -107v-3h-167v3c44 25 38 61 38 108v287z" />
    <glyph glyph-name="afii10085" unicode="&#x443;" horiz-adv-x="500" 
d="M368 343c15 39 38 92 -10 114v3h140l-208 -496c-54 -129 -124 -167 -218 -167c-43 0 -80 10 -119 25l90 65c17 -11 35 -24 56 -24c70 0 100 75 121 130l6 16l-4 5c-33 33 -33 38 -52 80l-122 266c-20 44 -32 79 -80 97v3h85c37 0 56 -15 67 -40l147 -331z" />
    <glyph glyph-name="afii10086" unicode="&#x444;" horiz-adv-x="840" 
d="M375 548c-3 46 6 82 -37 107v3h65c24 0 48 0 62 16v-272c31 47 89 71 140 71c123 0 207 -107 207 -238c0 -139 -91 -248 -217 -248c-24 0 -46 4 -67 13l-50 82c29 -17 61 -29 94 -29c91 0 137 71 137 171c0 93 -43 179 -133 179c-36 0 -64 -17 -88 -48
c-23 -29 -23 -67 -23 -107v-343c0 -46 -6 -82 38 -107v-3h-166v3c44 25 33 61 38 107v343c0 40 0 78 -23 107c-24 31 -52 48 -88 48c-90 0 -133 -86 -133 -179c0 -100 46 -171 137 -171c33 0 65 12 94 29l-50 -82c-21 -9 -43 -13 -67 -13c-126 0 -217 109 -217 248
c0 131 84 238 207 238c51 0 109 -24 140 -71v146z" />
    <glyph glyph-name="afii10087" unicode="&#x445;" horiz-adv-x="520" 
d="M150 72c-18 -21 -44 -48 -2 -69v-3h-162v3l214 238l-103 134c-24 33 -51 63 -85 82v3h76c34 0 62 -8 88 -42l86 -115l65 77c20 24 49 61 0 77v3h166l-186 -214l109 -145c29 -37 60 -77 102 -101h-108c-30 0 -47 19 -63 41l-103 141z" />
    <glyph glyph-name="afii10088" unicode="&#x446;" horiz-adv-x="540" 
d="M28 0v3c38 20 38 51 38 96v261c0 47 0 76 -38 97v3h167v-3c-38 -21 -38 -50 -38 -97v-292s18 -4 58 -4h110c40 0 59 4 59 4v292c0 47 -1 76 -38 97v3h167v-3c-37 -21 -38 -50 -38 -96v-262c0 -11 0 -23 2 -31h56l-36 -128h-3c-13 35 -35 60 -109 60h-357z" />
    <glyph glyph-name="afii10089" unicode="&#x447;" horiz-adv-x="500" 
d="M136 311c0 -42 36 -67 82 -67c43 0 87 11 125 29v77c0 46 6 82 -38 107v3h167v-3c-44 -25 -38 -62 -38 -108v-239c0 -46 -6 -82 38 -107v-3h-167v3c44 25 38 61 38 107v97c-43 -19 -99 -32 -152 -32c-62 -1 -148 29 -146 125v50c0 46 6 82 -38 107v3h167v-3
c-44 -25 -38 -62 -38 -108v-38z" />
    <glyph glyph-name="afii10090" unicode="&#x448;" horiz-adv-x="660" 
d="M28 0v3c38 20 38 51 38 96v261c0 47 0 76 -38 97v3h167v-3c-38 -21 -38 -50 -38 -97v-292s23 -4 63 -4s64 4 64 4v292c0 47 0 76 -38 97v3h167v-3c-38 -21 -38 -50 -38 -97v-292s23 -4 63 -4s64 4 64 4v292c0 47 -1 76 -38 97v3h167v-3c-37 -21 -38 -50 -38 -96v-262
c0 -45 0 -76 38 -96v-3h-603z" />
    <glyph glyph-name="afii10091" unicode="&#x449;" horiz-adv-x="660" 
d="M28 0v3c38 20 38 51 38 96v261c0 47 0 76 -38 97v3h167v-3c-38 -21 -38 -50 -38 -97v-292s23 -4 63 -4s64 4 64 4v292c0 47 0 76 -38 97v3h167v-3c-38 -21 -38 -50 -38 -97v-292s23 -4 63 -4s64 4 64 4v292c0 47 -1 76 -38 97v3h167v-3c-37 -21 -38 -50 -38 -96v-262
c0 -11 0 -23 2 -31h56l-36 -128h-3c-13 35 -35 60 -109 60h-475z" />
    <glyph glyph-name="afii10092" unicode="&#x44a;" horiz-adv-x="460" 
d="M235 460v-3c-44 -25 -38 -62 -38 -107v-240c0 -16 -1 -34 0 -48c17 -3 34 -5 51 -5c58 0 103 29 103 90c0 67 -68 98 -130 102c17 8 52 15 80 15c82 0 149 -49 149 -137c0 -78 -72 -127 -166 -127h-216v3c44 25 38 61 38 108v239c0 19 0 34 -1 47c-41 0 -84 -15 -116 -44
h-3l35 114h3c12 -5 25 -7 38 -7h173z" />
    <glyph glyph-name="afii10093" unicode="&#x44b;" horiz-adv-x="620" 
d="M554 110c0 -46 -6 -82 38 -107v-3h-167v3c44 25 38 61 38 108v239c0 45 6 82 -38 107v3h167v-3c-44 -25 -38 -62 -38 -107v-240zM157 62c17 -3 34 -5 51 -5c58 0 103 27 103 88c0 67 -68 100 -130 104c17 8 62 15 80 15c82 0 149 -49 149 -137c0 -78 -72 -127 -166 -127
h-216v3c44 25 38 61 38 108v239c0 45 6 82 -38 107v3h167v-3c-44 -25 -38 -62 -38 -107v-240c0 -16 -1 -34 0 -48z" />
    <glyph glyph-name="afii10094" unicode="&#x44c;" horiz-adv-x="420" 
d="M157 62c17 -3 34 -5 51 -5c58 0 103 29 103 90c0 67 -68 98 -130 102c17 8 52 15 80 15c82 0 149 -49 149 -137c0 -78 -72 -127 -166 -127h-216v3c44 25 38 61 38 108v239c0 45 6 82 -38 107v3h167v-3c-44 -25 -38 -62 -38 -107v-240c0 -16 -1 -34 0 -48z" />
    <glyph glyph-name="afii10095" unicode="&#x44d;" horiz-adv-x="460" 
d="M335 282c-16 75 -79 125 -163 125c-45 0 -93 -16 -122 -49h-3v103c35 8 72 12 108 12c151 0 285 -83 285 -255c0 -130 -120 -231 -274 -231c-44 0 -90 4 -132 20l-42 95h3c39 -29 86 -49 136 -49c102 0 192 64 206 163h-171c-23 0 -55 2 -67 -21h-2v91h2
c9 -4 21 -4 33 -4h203z" />
    <glyph glyph-name="afii10096" unicode="&#x44e;" horiz-adv-x="740" 
d="M223 216h-66v-106c0 -46 -6 -82 38 -107v-3h-167v3c44 25 38 61 38 108v239c0 45 6 82 -38 107v3h167v-3c-44 -25 -38 -62 -38 -107v-68h71c25 118 125 191 250 191c132 0 239 -106 239 -238c0 -144 -110 -248 -251 -248c-134 0 -238 92 -243 229zM616 214
c0 97 -42 193 -149 193c-93 0 -143 -73 -143 -163c0 -92 45 -191 147 -191c92 0 145 71 145 161z" />
    <glyph glyph-name="afii10097" unicode="&#x44f;" horiz-adv-x="480" 
d="M323 397l-68 6c-47 4 -89 -20 -89 -69c0 -54 65 -81 119 -87l17 -2c-64 -103 -123 -181 -151 -209c-27 -27 -51 -42 -93 -40l-79 4v3c30 11 79 54 121 107l86 109c-54 17 -113 57 -113 123c0 79 56 118 154 118h225v-3c-44 -25 -38 -62 -38 -108v-239
c0 -46 -6 -82 38 -107v-3h-167v3c44 25 38 61 38 107v287z" />
    <glyph glyph-name="Euro" unicode="&#x20ac;" 
d="M517 633v-92c-28 26 -78 50 -150 50c-104 0 -159 -65 -173 -156h284l-26 -71h-268c0 -9 -1 -20 -1 -31c0 -13 1 -26 1 -35h243l-26 -71h-207c16 -102 75 -159 174 -159c71 0 118 23 149 49v-93c-23 -17 -79 -39 -161 -39c-139 0 -231 76 -256 242h-77l26 71h43
c-1 9 -1 22 -1 34s0 23 1 32h-69l26 71h50c23 139 99 239 257 239c76 0 135 -22 161 -41z" />
    </font>
</defs>
</svg>
