<svg width="8" height="14" viewBox="0 0 8 14" fill="none" xmlns="http://www.w3.org/2000/svg">
<path d="M0.353942 13.6213L0.853912 12.2151C2.63289 11.2073 4.4697 9.679 5.70566 7.45207L5.86818 7.15926L5.70563 6.86639C4.61581 4.90289 2.68886 3.2159 0.945013 2.16917L0.354095 0.507246C2.81297 1.69424 5.97793 4.20945 7.56245 7.06445C5.78201 10.2726 2.92803 12.3789 0.353924 13.6214L0.353942 13.6213ZM1.24906 11.1035L1.94043 9.15869C2.72955 8.74108 3.4909 8.17605 4.05594 7.40975L4.30055 7.07874L4.05598 6.74779C3.54731 6.05789 2.75978 5.46663 1.96156 5.02688L1.35163 3.31303C2.79904 4.28915 4.2995 5.67892 5.2078 7.16015C4.18225 8.87041 2.72541 10.1734 1.24911 11.1035L1.24906 11.1035Z" fill="#C3A2ED"/>
</svg>
