<svg width="20" height="15" viewBox="0 0 20 15" fill="none" xmlns="http://www.w3.org/2000/svg">
<path d="M18.9332 3.03878L16.9905 3.86838C15.5983 6.82025 13.487 9.86809 10.4105 11.9189L10.006 12.1886L9.60145 11.9189C6.88893 10.1105 4.55841 6.91312 3.11239 4.01955L0.816497 3.03904C2.45629 7.11907 5.93097 12.3707 9.87506 14.9999C14.307 12.0456 17.2169 7.30997 18.9332 3.03875L18.9332 3.03878ZM15.4549 4.52405L12.7682 5.67125C12.1913 6.98064 11.4107 8.24396 10.3521 9.18153L9.8948 9.5874L9.4376 9.18159C8.48453 8.33755 7.66772 7.0308 7.06022 5.70631L4.69259 4.69425C6.04108 7.09595 7.96099 9.58567 10.0073 11.0928C12.3699 9.39111 14.17 6.97378 15.4549 4.52413L15.4549 4.52405Z" fill="white"/>
</svg>
