<svg width="144" height="102" viewBox="0 0 144 102" fill="none" xmlns="http://www.w3.org/2000/svg">
<path d="M57.6667 72.4999L94.8617 50.9999L57.6667 29.4999V72.4999ZM140.513 16.3849C141.445 19.7533 142.09 24.2683 142.52 30.0016C143.022 35.7349 143.237 40.6799 143.237 44.9799L143.667 50.9999C143.667 66.6949 142.52 78.2333 140.513 85.6149C138.722 92.0649 134.565 96.2216 128.115 98.0133C124.747 98.9449 118.583 99.5899 109.123 100.02C99.8067 100.522 91.2784 100.737 83.395 100.737L72 101.167C41.9717 101.167 23.2667 100.02 15.885 98.0133C9.43501 96.2216 5.27834 92.0649 3.48668 85.6149C2.55501 82.2466 1.91001 77.7316 1.48001 71.9983C0.978344 66.2649 0.763343 61.3199 0.763343 57.0199L0.333344 50.9999C0.333344 35.3049 1.48001 23.7666 3.48668 16.3849C5.27834 9.93492 9.43501 5.77825 15.885 3.98659C19.2533 3.05492 25.4167 2.40992 34.8767 1.97992C44.1933 1.47825 52.7217 1.26325 60.605 1.26325L72 0.833252C102.028 0.833252 120.733 1.97992 128.115 3.98659C134.565 5.77825 138.722 9.93492 140.513 16.3849Z" fill="white"/>
</svg>
