<svg width="141" height="105" viewBox="0 0 141 105" fill="none" xmlns="http://www.w3.org/2000/svg">
<path d="M119.304 8.72614C110.374 4.65846 100.705 1.70611 90.633 0.000301784C90.5447 -0.0024577 90.4569 0.0137348 90.3757 0.0477412C90.2944 0.0817476 90.2219 0.132742 90.163 0.197127C88.9544 2.36219 87.5444 5.18332 86.6043 7.34838C75.9216 5.77379 65.0576 5.77379 54.3749 7.34838C53.4349 5.11771 52.0248 2.36219 50.7491 0.197127C50.6819 0.065911 50.4805 0.000301784 50.2791 0.000301784C40.2073 1.70611 30.6057 4.65846 21.6083 8.72614C21.5411 8.72614 21.474 8.79175 21.4068 8.85736C3.14347 35.5597 -1.89238 61.5404 0.591975 87.2587C0.591975 87.3899 0.65912 87.5211 0.793409 87.5867C12.8795 96.247 24.4955 101.496 35.9772 104.973C36.1787 105.038 36.3801 104.973 36.4472 104.842C39.133 101.233 41.5502 97.4279 43.6317 93.4258C43.766 93.1634 43.6317 92.901 43.3631 92.8354C39.5359 91.392 35.9101 89.6862 32.3514 87.718C32.0828 87.5868 32.0828 87.1931 32.2843 86.9963C33.0229 86.4714 33.7615 85.8809 34.5 85.3561C34.6343 85.2249 34.8358 85.2249 34.9701 85.2905C58.0678 95.5909 82.9785 95.5909 105.808 85.2905C105.942 85.2249 106.143 85.2249 106.278 85.3561C107.016 85.9465 107.755 86.4714 108.493 87.0619C108.762 87.2587 108.762 87.6524 108.426 87.7836C104.935 89.8174 101.242 91.4576 97.4146 92.901C97.1461 92.9666 97.0789 93.2946 97.1461 93.4914C99.2947 97.4935 101.712 101.299 104.331 104.907C104.532 104.973 104.733 105.038 104.935 104.973C116.484 101.496 128.1 96.247 140.186 87.5867C140.32 87.5211 140.387 87.3899 140.387 87.2587C143.342 57.5384 135.486 31.7545 119.572 8.85736C119.505 8.79175 119.438 8.72614 119.304 8.72614ZM47.1233 71.5784C40.2074 71.5784 34.4329 65.3457 34.4329 57.6696C34.4329 49.9935 40.0731 43.7607 47.1233 43.7607C54.2406 43.7607 59.8807 50.0591 59.8136 57.6696C59.8136 65.3457 54.1734 71.5784 47.1233 71.5784ZM93.9231 71.5784C87.0072 71.5784 81.2328 65.3457 81.2328 57.6696C81.2328 49.9935 86.8729 43.7607 93.9231 43.7607C101.04 43.7607 106.681 50.0591 106.613 57.6696C106.613 65.3457 101.04 71.5784 93.9231 71.5784Z" fill="white"/>
</svg>
