<svg width="24" height="25" viewBox="0 0 24 25" fill="none" xmlns="http://www.w3.org/2000/svg">
<path d="M12.5578 15.9922H11.4422L10.875 14.075L7.88438 13.1469L7.93126 14.9938L9.89532 17.2109L10.65 16.5406L11.2219 23.1875L6.10313 17.4594L7.01251 14.7313L6.52501 8.8625L7.60782 8.40313C8.47032 11.7453 11.0344 12.9219 11.0344 12.9219L12 11.5672L12.9656 12.9219C12.9656 12.9219 15.5297 11.7453 16.3922 8.40313L17.475 8.8625L16.9875 14.7313L17.8969 17.4594L12.7781 23.1875L13.35 16.5406L14.1047 17.2109L16.0688 14.9938L16.1156 13.1469L13.125 14.075L12.5578 15.9922ZM18.4547 19.0297L14.9484 22.625L17.6109 21.3125L17.8969 22.4375L20.3156 20.75L18.4547 19.0297ZM5.54532 19.0297L9.05157 22.625L6.38907 21.3125L6.10313 22.4375L3.68438 20.75L5.54532 19.0297ZM18.0375 13.5125L22.7813 10.7797C23.7188 1.95313 20.2688 1.37656 16.8984 3.25156C16.8984 3.25156 22.2469 1.95313 19.9969 8.37969L18.3188 9.06875L18.0375 13.5125ZM5.96251 13.5125L1.21688 10.7797C0.281259 1.95313 3.73173 1.37656 7.10157 3.25156C7.10157 3.25156 1.75126 1.95313 4.0022 8.37969L5.68126 9.06875L5.96251 13.5125ZM12 6.40156L15.1641 8.36094C15.1641 8.36094 15.0141 10.0016 13.1766 11.3938L12 8.97031L10.8234 11.3938C8.98595 10.0016 8.83595 8.36094 8.83595 8.36094L12 6.40156Z" fill="white"/>
</svg>
