<svg width="7" height="10" viewBox="0 0 7 10" fill="none" xmlns="http://www.w3.org/2000/svg">
<path fill-rule="evenodd" clip-rule="evenodd" d="M6.20679 0.293031C6.39426 0.480558 6.49957 0.734866 6.49957 1.00003C6.49957 1.26519 6.39426 1.5195 6.20679 1.70703L2.91379 5.00003L6.20679 8.29303C6.38894 8.48163 6.48974 8.73423 6.48746 8.99643C6.48518 9.25863 6.38001 9.50944 6.1946 9.69485C6.0092 9.88026 5.75838 9.98543 5.49619 9.9877C5.23399 9.98998 4.98139 9.88919 4.79279 9.70703L0.792787 5.70703C0.605316 5.5195 0.5 5.26519 0.5 5.00003C0.5 4.73487 0.605316 4.48056 0.792787 4.29303L4.79279 0.293031C4.98031 0.10556 5.23462 0.000244141 5.49979 0.000244141C5.76495 0.000244141 6.01926 0.10556 6.20679 0.293031Z" fill="#5F5F5F"/>
</svg>
